<svg xmlns="http://www.w3.org/2000/svg" xmlns:xlink="http://www.w3.org/1999/xlink" width="1080" zoomAndPan="magnify" viewBox="0 0 810 809.999993" height="1080" preserveAspectRatio="xMidYMid meet" version="1.2"><defs><filter x="0%" y="0%" width="100%" filterUnits="objectBoundingBox" id="edaf955996" height="100%"><feColorMatrix values="0 0 0 0 1 0 0 0 0 1 0 0 0 0 1 0 0 0 1 0" type="matrix" in="SourceGraphic"/></filter><clipPath id="93c6a5eafb"><path d="M 0.238281 0 L 159 0 L 159 159 L 0.238281 159 Z M 0.238281 0 "/></clipPath><clipPath id="2c206ee095"><path d="M 0.238281 143 L 46 143 L 46 196 L 0.238281 196 Z M 0.238281 143 "/></clipPath><clipPath id="04ca57f83f"><path d="M 0.238281 220 L 44 220 L 44 269 L 0.238281 269 Z M 0.238281 220 "/></clipPath><clipPath id="571833ffda"><path d="M 0.238281 297 L 42 297 L 42 342 L 0.238281 342 Z M 0.238281 297 "/></clipPath><clipPath id="66360eee87"><path d="M 0.238281 374 L 40 374 L 40 414 L 0.238281 414 Z M 0.238281 374 "/></clipPath><clipPath id="c7bdf3a912"><path d="M 0.238281 191 L 7 191 L 7 223 L 0.238281 223 Z M 0.238281 191 "/></clipPath><clipPath id="8753b29e4e"><path d="M 0.238281 269 L 5 269 L 5 295 L 0.238281 295 Z M 0.238281 269 "/></clipPath><clipPath id="25ea1994e9"><path d="M 0.238281 349 L 3 349 L 3 365 L 0.238281 365 Z M 0.238281 349 "/></clipPath><clipPath id="e593a16f88"><path d="M 130 805 L 134 805 L 134 809.25 L 130 809.25 Z M 130 805 "/></clipPath><clipPath id="b0df1a0167"><rect x="0" width="810" y="0" height="810"/></clipPath></defs><g id="abb56dfe2c"><g mask="url(#b80c31d1a2)" transform="matrix(1,0,0,1,0,0.000000000000039746)"><g clip-path="url(#b0df1a0167)"><g clip-rule="nonzero" clip-path="url(#93c6a5eafb)"><path style=" stroke:none;fill-rule:nonzero;fill:#fd90c1;fill-opacity:1;" d="M 1.617188 150.8125 C 1.335938 150.253906 0.921875 149.835938 0.78125 149.28125 C 0.640625 148.167969 0.78125 147.054688 0.78125 145.941406 C 0.78125 99.039062 0.78125 52.277344 0.78125 5.375 C 0.78125 3.84375 0.78125 2.453125 0.78125 0.640625 C 2.171875 0.503906 3.148438 0.363281 4.261719 0.363281 C 51.996094 0.363281 99.734375 0.363281 147.472656 0.363281 C 148.585938 0.363281 150.253906 -0.472656 150.8125 1.476562 C 150.535156 1.617188 150.394531 1.894531 150.117188 2.035156 C 140.929688 9.410156 130.769531 10.664062 119.359375 5.652344 C 123.8125 15.253906 123.8125 24.300781 119.359375 32.929688 C 119.777344 33.207031 119.914062 33.347656 119.914062 33.347656 C 130.769531 28.476562 140.792969 29.867188 150.117188 37.105469 C 150.394531 37.246094 150.671875 37.382812 150.953125 37.523438 C 152.34375 39.472656 153.734375 41.28125 154.988281 43.367188 C 161.109375 53.390625 159.71875 66.332031 151.648438 74.960938 C 143.714844 83.589844 130.910156 85.816406 120.332031 80.527344 C 119.21875 79.972656 118.246094 79.414062 116.574219 78.441406 C 123.8125 90.964844 123.671875 102.796875 113.792969 112.957031 C 103.910156 123.117188 92.082031 123.394531 78.996094 116.4375 C 83.589844 124.648438 84.980469 132.578125 82.058594 140.792969 C 80.25 146.078125 76.910156 150.394531 72.179688 153.59375 C 62.992188 159.996094 50.746094 159.859375 41.699219 153.179688 C 36.269531 149.28125 32.929688 143.992188 31.398438 137.589844 C 29.867188 131.328125 31.121094 125.34375 34.042969 118.664062 C 24.441406 123.253906 15.535156 123.535156 5.929688 118.800781 C 10.941406 130.074219 9.828125 140.09375 2.730469 149.28125 C 2.3125 149.835938 1.894531 150.253906 1.617188 150.8125 Z M 46.429688 83.730469 C 46.847656 88.042969 47.820312 92.21875 47.542969 96.394531 C 47.265625 100.429688 45.734375 104.464844 44.761719 108.503906 C 53.945312 103.910156 62.992188 104.605469 72.179688 109.476562 C 67.308594 100.707031 66.890625 92.078125 70.507812 82.894531 C 57.980469 86.375 56.449219 86.375 46.429688 83.730469 Z M 110.171875 72.179688 C 104.882812 63.132812 104.328125 53.808594 108.640625 44.203125 C 100.570312 48.238281 92.359375 48.238281 83.730469 45.59375 C 86.929688 54.222656 86.511719 62.019531 82.894531 70.367188 C 92.777344 66.332031 101.542969 67.027344 110.171875 72.179688 Z M 30.980469 68.558594 C 28.335938 62.019531 28.058594 56.171875 29.171875 50.050781 C 26.109375 50.328125 23.328125 50.882812 20.683594 50.882812 C 17.898438 50.882812 14.976562 50.605469 12.195312 50.464844 C 12.195312 53.25 12.332031 56.171875 12.195312 58.957031 C 11.914062 61.738281 11.359375 64.523438 10.941406 67.585938 C 17.621094 65.914062 23.882812 66.054688 30.980469 68.558594 Z M 51.023438 11.496094 C 51.023438 17.480469 51.023438 23.050781 51.023438 28.335938 C 53.808594 28.335938 56.730469 28.199219 59.652344 28.335938 C 62.574219 28.617188 65.359375 29.3125 68.835938 29.867188 C 66.472656 23.328125 66.332031 16.925781 68.28125 9.964844 C 62.15625 12.195312 56.589844 12.472656 51.023438 11.496094 Z M 51.023438 11.496094 "/></g><path style=" stroke:none;fill-rule:nonzero;fill:#fd90c1;fill-opacity:1;" d="M 157.632812 132.164062 C 157.492188 146.078125 146.078125 157.351562 132.164062 157.351562 C 118.246094 157.214844 106.972656 145.800781 106.972656 131.882812 C 106.972656 117.828125 118.664062 106.414062 132.578125 106.554688 C 146.496094 106.695312 157.632812 118.105469 157.632812 132.164062 Z M 157.632812 132.164062 "/><path style=" stroke:none;fill-rule:nonzero;fill:#fd90c1;fill-opacity:1;" d="M 144.6875 94.585938 C 144.6875 80.527344 155.960938 69.253906 169.878906 69.394531 C 183.65625 69.535156 194.929688 80.667969 194.929688 94.445312 C 194.929688 108.363281 183.65625 119.636719 169.601562 119.636719 C 155.820312 119.496094 144.6875 108.363281 144.6875 94.585938 Z M 144.6875 94.585938 "/><path style=" stroke:none;fill-rule:nonzero;fill:#fd90c1;fill-opacity:1;" d="M 69.671875 169.601562 C 69.671875 155.542969 80.808594 144.269531 94.722656 144.269531 C 108.503906 144.269531 119.777344 155.542969 119.914062 169.324219 C 120.054688 183.238281 108.640625 194.511719 94.722656 194.511719 C 80.808594 194.511719 69.8125 183.378906 69.671875 169.601562 Z M 69.671875 169.601562 "/><path style=" stroke:none;fill-rule:nonzero;fill:#fd90c1;fill-opacity:1;" d="M 150.949219 37.523438 C 150.671875 37.382812 150.394531 37.246094 150.117188 37.105469 C 149.699219 36.132812 149.421875 35.019531 148.722656 34.183594 C 142.601562 24.996094 142.460938 14.140625 148.585938 4.816406 C 149.140625 3.84375 149.699219 2.867188 150.117188 1.894531 C 150.394531 1.753906 150.535156 1.476562 150.8125 1.335938 C 152.34375 0.921875 153.875 0.222656 155.40625 0.222656 C 165.007812 0.0859375 174.609375 0.222656 184.214844 0.0859375 C 186.441406 0.0859375 187.972656 0.921875 189.363281 2.589844 C 197.4375 12.054688 197.574219 26.390625 189.363281 35.992188 C 181.011719 45.734375 166.957031 47.824219 156.101562 41.003906 C 154.292969 40.027344 152.621094 38.777344 150.949219 37.523438 Z M 150.949219 37.523438 "/><g clip-rule="nonzero" clip-path="url(#2c206ee095)"><path style=" stroke:none;fill-rule:nonzero;fill:#fd90c1;fill-opacity:1;" d="M 1.617188 150.8125 C 2.035156 150.394531 2.3125 149.835938 2.730469 149.421875 C 3.84375 148.863281 4.957031 148.308594 6.070312 147.75 C 15.671875 142.183594 25.414062 142.042969 34.601562 148.445312 C 43.648438 154.707031 47.265625 163.894531 45.039062 174.609375 C 42.8125 185.328125 35.992188 192.285156 25.136719 194.652344 C 16.785156 196.460938 9.132812 194.375 2.589844 188.667969 C 1.335938 187.554688 0.78125 186.441406 0.78125 184.769531 C 0.78125 174.609375 0.78125 164.3125 0.78125 154.152344 C 0.78125 152.898438 1.335938 151.785156 1.617188 150.8125 Z M 1.617188 150.8125 "/></g><path style=" stroke:none;fill-rule:nonzero;fill:#fd90c1;fill-opacity:1;" d="M 81.78125 207.039062 C 81.640625 220.539062 70.507812 231.671875 57.007812 231.535156 C 43.507812 231.394531 32.511719 220.261719 32.652344 206.761719 C 32.792969 193.121094 43.925781 182.265625 57.425781 182.40625 C 70.925781 182.40625 81.921875 193.539062 81.78125 207.039062 Z M 81.78125 207.039062 "/><path style=" stroke:none;fill-rule:nonzero;fill:#fd90c1;fill-opacity:1;" d="M 231.8125 56.867188 C 231.8125 70.367188 220.816406 81.503906 207.316406 81.503906 C 193.816406 81.503906 182.683594 70.507812 182.683594 56.867188 C 182.683594 43.367188 193.679688 32.234375 207.179688 32.234375 C 220.679688 32.375 231.8125 43.367188 231.8125 56.867188 Z M 231.8125 56.867188 "/><path style=" stroke:none;fill-rule:nonzero;fill:#fd90c1;fill-opacity:1;" d="M 193.679688 169.183594 C 193.679688 182.40625 183.238281 193.121094 170.019531 193.261719 C 156.796875 193.398438 145.800781 182.542969 145.800781 169.324219 C 145.800781 156.238281 156.519531 145.382812 169.738281 145.382812 C 182.820312 145.382812 193.539062 156.101562 193.679688 169.183594 Z M 193.679688 169.183594 "/><path style=" stroke:none;fill-rule:nonzero;fill:#fd90c1;fill-opacity:1;" d="M 183.519531 131.882812 C 183.519531 118.664062 194.234375 107.945312 207.316406 108.085938 C 220.398438 108.222656 231.117188 118.941406 230.976562 132.164062 C 230.835938 145.105469 220.261719 155.683594 207.316406 155.824219 C 194.234375 155.820312 183.519531 145.105469 183.519531 131.882812 Z M 183.519531 131.882812 "/><path style=" stroke:none;fill-rule:nonzero;fill:#fd90c1;fill-opacity:1;" d="M 108.503906 207.039062 C 108.363281 193.816406 119.078125 183.101562 132.164062 183.101562 C 145.105469 183.101562 155.820312 193.679688 155.960938 206.621094 C 156.101562 219.84375 145.664062 230.558594 132.441406 230.835938 C 119.496094 230.976562 108.640625 220.261719 108.503906 207.039062 Z M 108.503906 207.039062 "/><path style=" stroke:none;fill-rule:nonzero;fill:#fd90c1;fill-opacity:1;" d="M 244.617188 71.203125 C 257.699219 71.203125 267.996094 81.503906 267.859375 94.585938 C 267.859375 107.527344 257.421875 117.828125 244.476562 117.828125 C 231.8125 117.828125 221.375 107.390625 221.234375 94.722656 C 221.375 81.640625 231.8125 71.203125 244.617188 71.203125 Z M 244.617188 71.203125 "/><path style=" stroke:none;fill-rule:nonzero;fill:#fd90c1;fill-opacity:1;" d="M 94.585938 221.09375 C 107.667969 221.09375 117.964844 231.253906 117.964844 244.335938 C 117.964844 257.28125 107.667969 267.71875 94.722656 267.71875 C 81.921875 267.71875 71.480469 257.421875 71.34375 244.753906 C 71.34375 231.8125 81.640625 221.234375 94.585938 221.09375 Z M 94.585938 221.09375 "/><path style=" stroke:none;fill-rule:nonzero;fill:#fd90c1;fill-opacity:1;" d="M 244.894531 0.222656 C 248.511719 0.222656 252.132812 0.363281 255.75 0.222656 C 258.253906 0.0859375 260.0625 1.058594 261.734375 2.730469 C 269.390625 10.523438 270.78125 22.351562 265.074219 31.679688 C 259.507812 40.863281 248.511719 45.179688 238.214844 42.253906 C 227.636719 39.191406 220.679688 29.589844 221.09375 18.59375 C 221.375 12.054688 223.878906 6.488281 228.609375 2.035156 C 229.863281 0.78125 231.253906 0.222656 232.925781 0.222656 C 236.820312 0.363281 240.859375 0.222656 244.894531 0.222656 Z M 244.894531 0.222656 "/><g clip-rule="nonzero" clip-path="url(#04ca57f83f)"><path style=" stroke:none;fill-rule:nonzero;fill:#fd90c1;fill-opacity:1;" d="M 0.78125 244.335938 C 0.78125 240.300781 0.78125 236.40625 0.78125 232.367188 C 0.78125 230.699219 1.335938 229.585938 2.3125 228.332031 C 9.132812 220.816406 20.40625 218.589844 29.730469 222.90625 C 39.054688 227.21875 44.761719 237.378906 43.367188 247.398438 C 41.976562 257.835938 34.042969 266.1875 23.746094 267.859375 C 15.671875 269.109375 8.714844 266.882812 2.867188 261.175781 C 1.335938 259.785156 0.503906 258.117188 0.640625 255.890625 C 0.78125 251.992188 0.78125 248.234375 0.78125 244.335938 Z M 0.78125 244.335938 "/></g><path style=" stroke:none;fill-rule:nonzero;fill:#fd90c1;fill-opacity:1;" d="M 57.425781 259.367188 C 69.949219 259.367188 79.972656 269.527344 79.832031 282.054688 C 79.691406 294.582031 69.671875 304.601562 57.148438 304.460938 C 44.621094 304.460938 34.601562 294.164062 34.738281 281.777344 C 34.738281 269.25 44.898438 259.230469 57.425781 259.367188 Z M 57.425781 259.367188 "/><path style=" stroke:none;fill-rule:nonzero;fill:#fd90c1;fill-opacity:1;" d="M 282.191406 34.460938 C 294.71875 34.460938 304.738281 44.480469 304.738281 57.007812 C 304.738281 69.535156 294.578125 79.554688 282.054688 79.414062 C 269.808594 79.277344 259.785156 69.253906 259.648438 57.007812 C 259.648438 44.621094 269.667969 34.460938 282.191406 34.460938 Z M 282.191406 34.460938 "/><path style=" stroke:none;fill-rule:nonzero;fill:#fd90c1;fill-opacity:1;" d="M 229.722656 207.039062 C 229.722656 219.425781 219.5625 229.445312 207.179688 229.308594 C 194.929688 229.308594 184.769531 219.148438 184.769531 206.898438 C 184.769531 194.511719 195.070312 184.351562 207.59375 184.351562 C 219.84375 184.492188 229.722656 194.652344 229.722656 207.039062 Z M 229.722656 207.039062 "/><path style=" stroke:none;fill-rule:nonzero;fill:#fd90c1;fill-opacity:1;" d="M 222.488281 169.324219 C 222.625 156.9375 232.785156 146.914062 245.035156 147.054688 C 257.421875 147.195312 267.164062 157.351562 267.023438 169.738281 C 266.882812 181.847656 256.722656 191.867188 244.617188 191.730469 C 232.367188 191.730469 222.347656 181.570312 222.488281 169.324219 Z M 222.488281 169.324219 "/><path style=" stroke:none;fill-rule:nonzero;fill:#fd90c1;fill-opacity:1;" d="M 192.007812 244.199219 C 192.007812 256.585938 182.125 266.746094 169.738281 266.746094 C 157.492188 266.746094 147.332031 256.722656 147.332031 244.335938 C 147.332031 232.089844 157.214844 222.207031 169.320312 221.929688 C 181.847656 221.929688 192.007812 231.949219 192.007812 244.199219 Z M 192.007812 244.199219 "/><path style=" stroke:none;fill-rule:nonzero;fill:#fd90c1;fill-opacity:1;" d="M 282.191406 110.035156 C 294.441406 110.035156 304.042969 119.636719 304.042969 131.882812 C 304.042969 143.992188 294.300781 153.734375 282.191406 153.734375 C 270.085938 153.734375 260.203125 143.992188 260.203125 131.882812 C 260.34375 119.777344 270.085938 110.035156 282.191406 110.035156 Z M 282.191406 110.035156 "/><path style=" stroke:none;fill-rule:nonzero;fill:#fd90c1;fill-opacity:1;" d="M 132.300781 260.066406 C 144.550781 260.066406 154.152344 269.808594 154.152344 282.054688 C 154.152344 294.164062 144.410156 303.90625 132.164062 303.90625 C 120.054688 303.90625 110.3125 294.164062 110.3125 281.914062 C 110.3125 269.667969 120.191406 260.066406 132.300781 260.066406 Z M 132.300781 260.066406 "/><path style=" stroke:none;fill-rule:nonzero;fill:#fd90c1;fill-opacity:1;" d="M 319.769531 0.222656 C 321.996094 0.222656 324.222656 0.363281 326.449219 0.222656 C 329.511719 -0.0546875 331.738281 1.199219 333.964844 3.007812 C 341.203125 9.269531 343.429688 19.570312 339.535156 28.335938 C 335.636719 36.828125 326.3125 42.253906 317.265625 41.003906 C 307.382812 39.75 299.867188 32.511719 298.335938 22.910156 C 297.085938 14.558594 299.867188 7.738281 306.410156 2.3125 C 308.078125 0.921875 309.890625 0.0859375 312.253906 0.222656 C 314.761719 0.363281 317.265625 0.222656 319.769531 0.222656 Z M 319.769531 0.222656 "/><g clip-rule="nonzero" clip-path="url(#571833ffda)"><path style=" stroke:none;fill-rule:nonzero;fill:#fd90c1;fill-opacity:1;" d="M 0.78125 319.074219 C 0.78125 316.570312 0.921875 314.066406 0.78125 311.558594 C 0.640625 309.332031 1.476562 307.664062 2.730469 306.132812 C 10.523438 296.109375 25.277344 294.859375 34.601562 303.488281 C 43.785156 311.976562 43.785156 326.589844 34.738281 335.21875 C 25.414062 343.847656 10.664062 342.734375 2.867188 332.851562 C 1.476562 331.183594 0.640625 329.375 0.78125 327.007812 C 0.921875 324.363281 0.78125 321.71875 0.78125 319.074219 Z M 0.78125 319.074219 "/></g><path style=" stroke:none;fill-rule:nonzero;fill:#fd90c1;fill-opacity:1;" d="M 319.632812 115.601562 C 307.800781 115.601562 298.476562 106.136719 298.476562 94.445312 C 298.476562 82.617188 307.800781 73.292969 319.632812 73.152344 C 331.460938 73.152344 341.203125 82.753906 341.066406 94.585938 C 340.925781 106.277344 331.460938 115.601562 319.632812 115.601562 Z M 319.632812 115.601562 "/><path style=" stroke:none;fill-rule:nonzero;fill:#fd90c1;fill-opacity:1;" d="M 73.570312 319.351562 C 73.570312 307.664062 83.035156 298.199219 94.722656 298.199219 C 106.414062 298.199219 116.019531 307.523438 116.019531 319.214844 C 116.15625 331.042969 106.414062 340.648438 94.585938 340.507812 C 82.894531 340.507812 73.570312 331.183594 73.570312 319.351562 Z M 73.570312 319.351562 "/><path style=" stroke:none;fill-rule:nonzero;fill:#fd90c1;fill-opacity:1;" d="M 265.632812 244.753906 C 265.492188 256.308594 256.027344 265.632812 244.476562 265.351562 C 233.0625 265.214844 223.601562 255.472656 223.738281 244.058594 C 224.019531 232.507812 233.480469 223.320312 245.035156 223.460938 C 256.585938 223.601562 265.769531 233.066406 265.632812 244.753906 Z M 265.632812 244.753906 "/><path style=" stroke:none;fill-rule:nonzero;fill:#fd90c1;fill-opacity:1;" d="M 303.070312 206.898438 C 303.070312 218.449219 293.605469 227.914062 282.054688 227.777344 C 270.640625 227.636719 261.316406 218.171875 261.316406 206.898438 C 261.316406 195.347656 270.921875 185.882812 282.332031 186.023438 C 293.882812 186.164062 303.070312 195.488281 303.070312 206.898438 Z M 303.070312 206.898438 "/><path style=" stroke:none;fill-rule:nonzero;fill:#fd90c1;fill-opacity:1;" d="M 228.054688 281.914062 C 228.054688 293.464844 218.449219 302.929688 207.039062 302.792969 C 195.625 302.652344 186.300781 293.1875 186.441406 281.914062 C 186.441406 270.363281 196.042969 260.898438 207.59375 261.039062 C 218.867188 261.179688 228.054688 270.503906 228.054688 281.914062 Z M 228.054688 281.914062 "/><path style=" stroke:none;fill-rule:nonzero;fill:#fd90c1;fill-opacity:1;" d="M 169.738281 339.8125 C 158.328125 339.8125 149.28125 330.765625 149.28125 319.351562 C 149.28125 307.941406 158.328125 298.894531 169.738281 298.894531 C 181.152344 298.894531 190.335938 308.082031 190.335938 319.351562 C 190.335938 330.765625 181.152344 339.8125 169.738281 339.8125 Z M 169.738281 339.8125 "/><path style=" stroke:none;fill-rule:nonzero;fill:#fd90c1;fill-opacity:1;" d="M 57.148438 377.390625 C 45.734375 377.25 36.828125 368.203125 36.828125 356.792969 C 36.828125 345.378906 46.152344 336.472656 57.425781 336.472656 C 68.835938 336.609375 78.023438 345.796875 77.746094 357.070312 C 77.746094 368.34375 68.421875 377.390625 57.148438 377.390625 Z M 57.148438 377.390625 "/><path style=" stroke:none;fill-rule:nonzero;fill:#fd90c1;fill-opacity:1;" d="M 357.070312 36.550781 C 368.480469 36.410156 377.667969 45.457031 377.667969 56.867188 C 377.667969 68.140625 368.621094 77.328125 357.207031 77.328125 C 345.933594 77.328125 336.890625 68.421875 336.75 57.285156 C 336.609375 45.875 345.65625 36.6875 357.070312 36.550781 Z M 357.070312 36.550781 "/><path style=" stroke:none;fill-rule:nonzero;fill:#fd90c1;fill-opacity:1;" d="M 319.632812 149.003906 C 331.042969 149.003906 340.089844 157.910156 340.230469 169.324219 C 340.230469 180.734375 331.183594 189.78125 319.769531 189.78125 C 308.496094 189.78125 299.449219 180.875 299.449219 169.601562 C 299.171875 158.328125 308.21875 149.140625 319.632812 149.003906 Z M 319.632812 149.003906 "/><path style=" stroke:none;fill-rule:nonzero;fill:#fd90c1;fill-opacity:1;" d="M 112.398438 356.792969 C 112.398438 345.796875 121.167969 337.027344 132.023438 336.890625 C 143.019531 336.75 152.203125 345.9375 152.0625 356.929688 C 152.0625 367.925781 142.878906 376.972656 131.882812 376.832031 C 121.027344 376.695312 112.398438 367.925781 112.398438 356.792969 Z M 112.398438 356.792969 "/><path style=" stroke:none;fill-rule:nonzero;fill:#fd90c1;fill-opacity:1;" d="M 337.445312 131.746094 C 337.445312 120.75 346.351562 111.980469 357.207031 111.980469 C 368.203125 111.980469 377.25 121.167969 377.109375 132.164062 C 376.972656 143.019531 368.066406 151.925781 357.207031 151.925781 C 346.074219 151.785156 337.308594 142.878906 337.445312 131.746094 Z M 337.445312 131.746094 "/><path style=" stroke:none;fill-rule:nonzero;fill:#fd90c1;fill-opacity:1;" d="M 394.925781 0.222656 C 403.972656 -0.75 414.269531 7.878906 414.132812 19.292969 C 413.992188 30.148438 405.503906 38.777344 394.648438 38.777344 C 383.929688 38.777344 375.023438 29.867188 375.164062 19.152344 C 375.441406 6.625 386.296875 -0.75 394.925781 0.222656 Z M 394.925781 0.222656 "/><g clip-rule="nonzero" clip-path="url(#66360eee87)"><path style=" stroke:none;fill-rule:nonzero;fill:#fd90c1;fill-opacity:1;" d="M 0.78125 394.367188 C -0.472656 384.765625 8.714844 374.746094 19.847656 374.882812 C 30.703125 375.023438 39.191406 383.652344 39.191406 394.507812 C 39.191406 405.085938 30.5625 413.851562 19.988281 413.851562 C 8.019531 413.992188 -0.472656 403.414062 0.78125 394.367188 Z M 0.78125 394.367188 "/></g><path style=" stroke:none;fill-rule:nonzero;fill:#fd90c1;fill-opacity:1;" d="M 301.539062 281.914062 C 301.539062 292.632812 292.910156 301.261719 282.332031 301.261719 C 271.617188 301.261719 262.707031 292.351562 262.847656 281.636719 C 262.988281 271.058594 271.753906 262.429688 282.332031 262.429688 C 292.910156 262.570312 301.539062 271.199219 301.539062 281.914062 Z M 301.539062 281.914062 "/><path style=" stroke:none;fill-rule:nonzero;fill:#fd90c1;fill-opacity:1;" d="M 263.960938 319.351562 C 263.960938 329.929688 255.332031 338.699219 244.753906 338.699219 C 234.179688 338.699219 225.550781 330.070312 225.410156 319.351562 C 225.410156 308.636719 234.039062 300.007812 244.617188 300.007812 C 255.332031 300.007812 263.960938 308.777344 263.960938 319.351562 Z M 263.960938 319.351562 "/><path style=" stroke:none;fill-rule:nonzero;fill:#fd90c1;fill-opacity:1;" d="M 300.5625 243.921875 C 300.84375 233.203125 309.75 224.714844 320.328125 225.132812 C 331.042969 225.550781 339.253906 234.316406 339.117188 245.035156 C 338.835938 255.609375 329.792969 264.238281 319.351562 263.824219 C 308.496094 263.265625 300.148438 254.496094 300.5625 243.921875 Z M 300.5625 243.921875 "/><path style=" stroke:none;fill-rule:nonzero;fill:#fd90c1;fill-opacity:1;" d="M 75.65625 394.367188 C 75.65625 383.652344 84.285156 375.023438 95.003906 375.164062 C 105.441406 375.300781 114.070312 383.929688 114.070312 394.367188 C 114.070312 404.945312 105.300781 413.714844 94.722656 413.574219 C 84.007812 413.4375 75.65625 404.945312 75.65625 394.367188 Z M 75.65625 394.367188 "/><path style=" stroke:none;fill-rule:nonzero;fill:#fd90c1;fill-opacity:1;" d="M 394.507812 113.511719 C 383.929688 113.375 375.578125 105.023438 375.578125 94.445312 C 375.578125 83.867188 384.070312 75.378906 394.648438 75.378906 C 405.222656 75.378906 413.992188 84.285156 413.851562 94.722656 C 413.714844 105.164062 405.085938 113.511719 394.507812 113.511719 Z M 394.507812 113.511719 "/><path style=" stroke:none;fill-rule:nonzero;fill:#fd90c1;fill-opacity:1;" d="M 357.070312 225.828125 C 346.632812 225.828125 338.28125 217.335938 338.28125 207.039062 C 338.28125 196.460938 346.769531 188.109375 357.347656 188.109375 C 367.785156 188.109375 375.996094 196.460938 376.136719 206.898438 C 376.136719 217.476562 367.648438 225.828125 357.070312 225.828125 Z M 357.070312 225.828125 "/><path style=" stroke:none;fill-rule:nonzero;fill:#fd90c1;fill-opacity:1;" d="M 207.039062 338.003906 C 217.617188 338.003906 226.105469 346.351562 226.105469 356.929688 C 226.105469 367.367188 217.753906 375.71875 207.316406 375.71875 C 196.738281 375.71875 188.25 367.367188 188.25 356.792969 C 188.390625 346.492188 196.738281 338.140625 207.039062 338.003906 Z M 207.039062 338.003906 "/><path style=" stroke:none;fill-rule:nonzero;fill:#fd90c1;fill-opacity:1;" d="M 151.367188 394.230469 C 151.507812 384.070312 159.71875 375.859375 169.738281 375.859375 C 179.898438 375.859375 188.25 384.347656 188.25 394.507812 C 188.109375 404.527344 179.898438 412.738281 169.738281 412.738281 C 159.578125 412.878906 151.367188 404.527344 151.367188 394.230469 Z M 151.367188 394.230469 "/><path style=" stroke:none;fill-rule:nonzero;fill:#fd90c1;fill-opacity:1;" d="M 376.414062 169.324219 C 376.414062 159.164062 384.625 150.949219 394.785156 150.949219 C 404.945312 150.949219 413.433594 159.441406 413.296875 169.601562 C 413.15625 179.621094 404.945312 187.832031 394.925781 187.972656 C 384.488281 187.972656 376.277344 179.621094 376.414062 169.324219 Z M 376.414062 169.324219 "/><path style=" stroke:none;fill-rule:nonzero;fill:#fd90c1;fill-opacity:1;" d="M 57.425781 450.039062 C 47.40625 450.039062 39.191406 442.105469 39.054688 432.085938 C 38.914062 421.785156 46.988281 413.714844 57.148438 413.574219 C 67.308594 413.574219 75.65625 421.785156 75.519531 431.808594 C 75.519531 441.964844 67.445312 450.039062 57.425781 450.039062 Z M 57.425781 450.039062 "/><path style=" stroke:none;fill-rule:nonzero;fill:#fd90c1;fill-opacity:1;" d="M 432.085938 38.914062 C 442.246094 38.914062 450.179688 46.707031 450.316406 56.867188 C 450.457031 67.027344 442.382812 75.238281 432.085938 75.101562 C 422.0625 75.101562 413.992188 67.027344 413.992188 57.007812 C 413.992188 46.988281 422.0625 38.914062 432.085938 38.914062 Z M 432.085938 38.914062 "/><path style=" stroke:none;fill-rule:nonzero;fill:#fd90c1;fill-opacity:1;" d="M 414.550781 132.023438 C 414.550781 122.28125 422.203125 114.347656 431.945312 114.207031 C 441.6875 114.070312 449.898438 122.28125 449.761719 132.023438 C 449.621094 141.765625 441.6875 149.558594 432.085938 149.558594 C 422.480469 149.558594 414.6875 141.765625 414.550781 132.023438 Z M 414.550781 132.023438 "/><path style=" stroke:none;fill-rule:nonzero;fill:#fd90c1;fill-opacity:1;" d="M 302.09375 319.351562 C 302.09375 309.609375 310.027344 301.679688 319.632812 301.679688 C 329.234375 301.679688 337.308594 309.609375 337.308594 319.214844 C 337.308594 328.957031 329.234375 337.027344 319.492188 337.027344 C 309.75 336.890625 302.09375 329.09375 302.09375 319.351562 Z M 302.09375 319.351562 "/><path style=" stroke:none;fill-rule:nonzero;fill:#fd90c1;fill-opacity:1;" d="M 114.625 431.808594 C 114.625 422.066406 122.558594 414.269531 132.300781 414.269531 C 141.90625 414.269531 149.976562 422.34375 149.976562 431.945312 C 149.976562 441.828125 141.90625 449.761719 132.023438 449.621094 C 122.28125 449.34375 114.625 441.550781 114.625 431.808594 Z M 114.625 431.808594 "/><path style=" stroke:none;fill-rule:nonzero;fill:#fd90c1;fill-opacity:1;" d="M 339.671875 281.636719 C 339.8125 272.035156 347.605469 264.378906 357.207031 264.378906 C 366.949219 264.378906 374.882812 272.3125 374.882812 282.054688 C 374.746094 291.796875 366.8125 299.589844 357.070312 299.449219 C 347.1875 299.3125 339.535156 291.519531 339.671875 281.636719 Z M 339.671875 281.636719 "/><path style=" stroke:none;fill-rule:nonzero;fill:#fd90c1;fill-opacity:1;" d="M 282.191406 374.328125 C 272.3125 374.328125 264.65625 366.535156 264.65625 356.652344 C 264.65625 347.050781 272.449219 339.394531 282.054688 339.253906 C 291.796875 339.117188 299.730469 347.050781 299.867188 356.792969 C 299.867188 366.535156 291.9375 374.464844 282.191406 374.328125 Z M 282.191406 374.328125 "/><path style=" stroke:none;fill-rule:nonzero;fill:#fd90c1;fill-opacity:1;" d="M 394.507812 261.734375 C 385.042969 261.59375 377.390625 253.941406 377.390625 244.476562 C 377.390625 234.875 385.183594 227.21875 394.925781 227.21875 C 404.527344 227.21875 412.042969 235.011719 411.90625 244.753906 C 411.765625 254.21875 404.109375 261.734375 394.507812 261.734375 Z M 394.507812 261.734375 "/><path style=" stroke:none;fill-rule:nonzero;fill:#fd90c1;fill-opacity:1;" d="M 261.875 394.367188 C 261.875 403.832031 254.359375 411.488281 244.894531 411.625 C 235.292969 411.765625 227.359375 403.972656 227.359375 394.367188 C 227.359375 384.765625 235.152344 377.109375 244.894531 377.109375 C 254.359375 377.25 261.875 384.90625 261.875 394.367188 Z M 261.875 394.367188 "/><path style=" stroke:none;fill-rule:nonzero;fill:#fd90c1;fill-opacity:1;" d="M 19.847656 486.640625 C 10.523438 486.78125 2.589844 478.988281 2.449219 469.523438 C 2.3125 460.199219 10.105469 452.265625 19.570312 452.265625 C 29.035156 452.265625 36.828125 459.78125 36.828125 469.382812 C 36.964844 478.707031 29.3125 486.503906 19.847656 486.640625 Z M 19.847656 486.640625 "/><path style=" stroke:none;fill-rule:nonzero;fill:#fd90c1;fill-opacity:1;" d="M 469.664062 2.867188 C 479.265625 2.867188 486.78125 10.523438 486.78125 19.988281 C 486.78125 29.3125 479.125 36.828125 469.800781 36.828125 C 460.199219 36.828125 452.683594 29.171875 452.683594 19.707031 C 452.683594 10.246094 460.199219 2.867188 469.664062 2.867188 Z M 469.664062 2.867188 "/><path style=" stroke:none;fill-rule:nonzero;fill:#fd90c1;fill-opacity:1;" d="M 78.023438 469.382812 C 78.023438 459.921875 85.539062 452.40625 94.863281 452.40625 C 104.1875 452.40625 111.84375 460.199219 111.703125 469.382812 C 111.5625 478.570312 104.1875 485.945312 95.003906 486.085938 C 85.539062 486.222656 78.023438 478.847656 78.023438 469.382812 Z M 78.023438 469.382812 "/><path style=" stroke:none;fill-rule:nonzero;fill:#fd90c1;fill-opacity:1;" d="M 190.476562 431.945312 C 190.476562 422.480469 197.992188 414.964844 207.316406 415.105469 C 216.640625 415.105469 224.296875 422.898438 224.15625 432.085938 C 224.019531 441.269531 216.640625 448.648438 207.316406 448.785156 C 197.992188 448.785156 190.476562 441.269531 190.476562 431.945312 Z M 190.476562 431.945312 "/><path style=" stroke:none;fill-rule:nonzero;fill:#fd90c1;fill-opacity:1;" d="M 452.960938 95.003906 C 452.820312 85.816406 460.199219 78.164062 469.382812 78.023438 C 478.707031 77.882812 486.503906 85.539062 486.503906 94.863281 C 486.503906 104.050781 478.988281 111.566406 469.800781 111.703125 C 460.617188 111.703125 453.101562 104.1875 452.960938 95.003906 Z M 452.960938 95.003906 "/><path style=" stroke:none;fill-rule:nonzero;fill:#fd90c1;fill-opacity:1;" d="M 415.523438 207.039062 C 415.523438 197.714844 422.761719 190.335938 432.085938 190.199219 C 441.550781 190.058594 449.203125 197.574219 449.0625 206.898438 C 449.0625 216.085938 441.550781 223.460938 432.363281 223.460938 C 422.898438 223.601562 415.523438 216.222656 415.523438 207.039062 Z M 415.523438 207.039062 "/><path style=" stroke:none;fill-rule:nonzero;fill:#fd90c1;fill-opacity:1;" d="M 453.65625 169.878906 C 453.65625 160.832031 460.753906 153.734375 469.800781 153.734375 C 478.707031 153.734375 485.945312 161.109375 485.945312 170.019531 C 485.804688 178.785156 478.570312 185.882812 469.941406 186.023438 C 460.894531 186.023438 453.65625 178.785156 453.65625 169.878906 Z M 453.65625 169.878906 "/><path style=" stroke:none;fill-rule:nonzero;fill:#fd90c1;fill-opacity:1;" d="M 169.738281 485.390625 C 160.832031 485.390625 153.734375 478.429688 153.59375 469.523438 C 153.457031 460.476562 160.691406 453.238281 169.601562 453.238281 C 178.507812 453.238281 185.882812 460.617188 185.746094 469.523438 C 185.746094 478.292969 178.648438 485.390625 169.738281 485.390625 Z M 169.738281 485.390625 "/><path style=" stroke:none;fill-rule:nonzero;fill:#fd90c1;fill-opacity:1;" d="M 410.511719 319.632812 C 410.375 328.539062 403.277344 335.359375 394.230469 335.21875 C 385.460938 335.078125 378.503906 327.703125 378.78125 318.9375 C 379.058594 310.167969 386.296875 303.347656 395.203125 303.625 C 403.972656 303.765625 410.652344 311.003906 410.511719 319.632812 Z M 410.511719 319.632812 "/><path style=" stroke:none;fill-rule:nonzero;fill:#fd90c1;fill-opacity:1;" d="M 319.769531 410.234375 C 311.003906 410.234375 303.90625 403.136719 303.90625 394.230469 C 303.90625 385.460938 311.140625 378.363281 320.050781 378.503906 C 328.816406 378.640625 335.636719 385.460938 335.636719 394.230469 C 335.636719 403.136719 328.539062 410.234375 319.769531 410.234375 Z M 319.769531 410.234375 "/><path style=" stroke:none;fill-rule:nonzero;fill:#fd90c1;fill-opacity:1;" d="M 357.070312 372.796875 C 348.300781 372.796875 341.203125 365.558594 341.203125 356.792969 C 341.34375 348.164062 348.300781 341.203125 356.929688 341.203125 C 365.835938 341.203125 372.933594 348.164062 372.933594 357.070312 C 373.074219 365.699219 365.976562 372.796875 357.070312 372.796875 Z M 357.070312 372.796875 "/><path style=" stroke:none;fill-rule:nonzero;fill:#fd90c1;fill-opacity:1;" d="M 41.140625 506.824219 C 41.140625 498.054688 48.101562 491.234375 56.867188 491.234375 C 65.496094 491.234375 72.59375 498.332031 72.734375 506.960938 C 72.734375 515.730469 65.496094 522.96875 56.730469 522.828125 C 47.960938 522.550781 41.140625 515.449219 41.140625 506.824219 Z M 41.140625 506.824219 "/><path style=" stroke:none;fill-rule:nonzero;fill:#fd90c1;fill-opacity:1;" d="M 507.101562 73.011719 C 498.472656 73.011719 491.375 65.914062 491.375 57.285156 C 491.375 48.65625 498.472656 41.558594 507.101562 41.558594 C 515.867188 41.558594 522.964844 48.65625 522.828125 57.566406 C 522.828125 66.195312 515.867188 73.152344 507.101562 73.011719 Z M 507.101562 73.011719 "/><path style=" stroke:none;fill-rule:nonzero;fill:#fd90c1;fill-opacity:1;" d="M 416.636719 281.777344 C 416.777344 273.285156 423.734375 266.328125 432.222656 266.328125 C 440.851562 266.328125 447.949219 273.566406 447.671875 282.195312 C 447.535156 290.683594 440.296875 297.640625 431.945312 297.503906 C 423.457031 297.363281 416.636719 290.265625 416.636719 281.777344 Z M 416.636719 281.777344 "/><path style=" stroke:none;fill-rule:nonzero;fill:#fd90c1;fill-opacity:1;" d="M 297.78125 432.085938 C 297.78125 440.574219 290.683594 447.535156 282.191406 447.535156 C 273.703125 447.535156 266.746094 440.574219 266.746094 431.945312 C 266.746094 423.316406 273.84375 416.078125 282.472656 416.359375 C 290.960938 416.496094 297.921875 423.457031 297.78125 432.085938 Z M 297.78125 432.085938 "/><path style=" stroke:none;fill-rule:nonzero;fill:#fd90c1;fill-opacity:1;" d="M 147.191406 506.960938 C 147.191406 515.449219 140.511719 522.132812 132.023438 522.132812 C 123.535156 522.132812 116.714844 515.449219 116.574219 506.960938 C 116.4375 498.472656 123.535156 491.511719 132.164062 491.511719 C 140.511719 491.652344 147.191406 498.472656 147.191406 506.960938 Z M 147.191406 506.960938 "/><path style=" stroke:none;fill-rule:nonzero;fill:#fd90c1;fill-opacity:1;" d="M 507.101562 116.992188 C 515.449219 116.992188 522.410156 123.8125 522.410156 132.164062 C 522.410156 140.511719 515.589844 147.472656 507.238281 147.472656 C 498.890625 147.472656 492.070312 140.652344 491.929688 132.300781 C 491.929688 123.949219 498.75 117.132812 507.101562 116.992188 Z M 507.101562 116.992188 "/><path style=" stroke:none;fill-rule:nonzero;fill:#fd90c1;fill-opacity:1;" d="M 484.691406 244.753906 C 484.691406 253.246094 477.875 260.066406 469.523438 259.925781 C 461.3125 259.785156 454.632812 252.964844 454.632812 244.753906 C 454.632812 236.40625 461.589844 229.445312 469.941406 229.585938 C 478.152344 229.722656 484.691406 236.542969 484.691406 244.753906 Z M 484.691406 244.753906 "/><path style=" stroke:none;fill-rule:nonzero;fill:#fd90c1;fill-opacity:1;" d="M 244.753906 484.414062 C 236.40625 484.414062 229.722656 477.734375 229.585938 469.523438 C 229.445312 461.035156 236.40625 454.351562 244.894531 454.351562 C 253.246094 454.351562 259.785156 461.035156 259.785156 469.523438 C 259.785156 477.875 253.105469 484.414062 244.753906 484.414062 Z M 244.753906 484.414062 "/><path style=" stroke:none;fill-rule:nonzero;fill:#fd90c1;fill-opacity:1;" d="M 530.203125 19.707031 C 530.203125 11.777344 536.746094 5.234375 544.816406 5.234375 C 552.75 5.234375 559.292969 11.914062 559.292969 19.847656 C 559.152344 27.78125 552.609375 34.324219 544.679688 34.324219 C 536.605469 34.324219 530.203125 27.78125 530.203125 19.707031 Z M 530.203125 19.707031 "/><path style=" stroke:none;fill-rule:nonzero;fill:#fd90c1;fill-opacity:1;" d="M 19.292969 558.734375 C 11.21875 558.734375 4.679688 552.195312 4.816406 544.121094 C 4.957031 536.050781 11.496094 529.785156 19.570312 529.785156 C 27.503906 529.925781 33.765625 536.1875 33.765625 544.261719 C 33.90625 552.472656 27.503906 558.875 19.292969 558.734375 Z M 19.292969 558.734375 "/><path style=" stroke:none;fill-rule:nonzero;fill:#fd90c1;fill-opacity:1;" d="M 206.898438 521.296875 C 198.828125 521.296875 192.285156 514.753906 192.285156 506.820312 C 192.285156 498.75 198.964844 492.347656 207.039062 492.488281 C 214.972656 492.625 221.234375 498.890625 221.375 506.820312 C 221.375 514.894531 214.972656 521.296875 206.898438 521.296875 Z M 206.898438 521.296875 "/><path style=" stroke:none;fill-rule:nonzero;fill:#fd90c1;fill-opacity:1;" d="M 521.574219 207.179688 C 521.574219 215.25 515.035156 221.792969 507.101562 221.652344 C 499.308594 221.511719 492.90625 215.109375 492.90625 207.316406 C 492.90625 199.382812 499.445312 192.703125 507.378906 192.84375 C 515.171875 192.980469 521.4375 199.382812 521.574219 207.179688 Z M 521.574219 207.179688 "/><path style=" stroke:none;fill-rule:nonzero;fill:#fd90c1;fill-opacity:1;" d="M 80.25 544.398438 C 80.25 536.464844 86.375 530.066406 94.308594 530.066406 C 102.238281 530.066406 108.640625 536.328125 108.640625 544.261719 C 108.640625 552.054688 102.238281 558.59375 94.445312 558.59375 C 86.652344 558.734375 80.25 552.332031 80.25 544.398438 Z M 80.25 544.398438 "/><path style=" stroke:none;fill-rule:nonzero;fill:#fd90c1;fill-opacity:1;" d="M 544.539062 109.058594 C 536.605469 109.058594 530.203125 102.519531 530.34375 94.585938 C 530.480469 86.929688 536.882812 80.527344 544.539062 80.527344 C 552.472656 80.527344 558.875 86.929688 558.875 94.863281 C 558.875 102.796875 552.609375 109.058594 544.539062 109.058594 Z M 544.539062 109.058594 "/><path style=" stroke:none;fill-rule:nonzero;fill:#fd90c1;fill-opacity:1;" d="M 418.308594 356.792969 C 418.308594 348.996094 424.707031 342.734375 432.363281 342.734375 C 440.15625 342.875 446.28125 349.277344 446.28125 357.070312 C 446.140625 364.585938 439.878906 370.847656 432.363281 370.847656 C 424.570312 370.988281 418.167969 364.585938 418.308594 356.792969 Z M 418.308594 356.792969 "/><path style=" stroke:none;fill-rule:nonzero;fill:#fd90c1;fill-opacity:1;" d="M 380.730469 394.367188 C 380.730469 386.574219 386.992188 380.171875 394.785156 380.3125 C 402.441406 380.3125 408.84375 386.714844 408.703125 394.507812 C 408.566406 402.023438 402.441406 408.285156 394.785156 408.425781 C 387.132812 408.566406 380.730469 402.164062 380.730469 394.367188 Z M 380.730469 394.367188 "/><path style=" stroke:none;fill-rule:nonzero;fill:#fd90c1;fill-opacity:1;" d="M 343.292969 431.945312 C 343.292969 424.152344 349.554688 417.75 357.207031 417.75 C 364.863281 417.75 371.265625 424.152344 371.265625 431.945312 C 371.265625 439.460938 365.003906 445.722656 357.488281 445.863281 C 349.691406 446.140625 343.292969 439.738281 343.292969 431.945312 Z M 343.292969 431.945312 "/><path style=" stroke:none;fill-rule:nonzero;fill:#fd90c1;fill-opacity:1;" d="M 305.992188 469.523438 C 305.992188 461.867188 311.976562 455.746094 319.632812 455.746094 C 327.285156 455.746094 333.550781 461.867188 333.410156 469.523438 C 333.410156 477.039062 327.285156 483.023438 319.769531 483.164062 C 312.253906 483.164062 305.992188 477.179688 305.992188 469.523438 Z M 305.992188 469.523438 "/><path style=" stroke:none;fill-rule:nonzero;fill:#fd90c1;fill-opacity:1;" d="M 531.039062 169.878906 C 530.898438 162.503906 537.023438 156.238281 544.398438 156.101562 C 551.777344 155.960938 558.039062 161.945312 558.179688 169.460938 C 558.316406 177.117188 552.332031 183.378906 544.679688 183.519531 C 537.300781 183.519531 531.179688 177.394531 531.039062 169.878906 Z M 531.039062 169.878906 "/><path style=" stroke:none;fill-rule:nonzero;fill:#fd90c1;fill-opacity:1;" d="M 456.023438 319.910156 C 455.882812 312.535156 462.007812 306.269531 469.382812 306.132812 C 476.761719 305.992188 483.023438 311.976562 483.164062 319.492188 C 483.300781 327.148438 477.316406 333.410156 469.664062 333.550781 C 462.425781 333.550781 456.164062 327.285156 456.023438 319.910156 Z M 456.023438 319.910156 "/><path style=" stroke:none;fill-rule:nonzero;fill:#fd90c1;fill-opacity:1;" d="M 169.601562 530.761719 C 177.117188 530.761719 183.101562 536.882812 183.101562 544.398438 C 183.101562 552.054688 176.835938 558.039062 169.183594 557.898438 C 161.667969 557.761719 155.820312 551.636719 155.960938 544.121094 C 155.960938 536.605469 161.945312 530.761719 169.601562 530.761719 Z M 169.601562 530.761719 "/><path style=" stroke:none;fill-rule:nonzero;fill:#fd90c1;fill-opacity:1;" d="M 294.996094 506.960938 C 294.996094 514.199219 289.152344 520.042969 281.914062 520.183594 C 274.679688 520.324219 268.554688 514.199219 268.554688 506.824219 C 268.554688 499.445312 274.816406 493.460938 282.054688 493.601562 C 289.292969 493.738281 294.996094 499.585938 294.996094 506.960938 Z M 294.996094 506.960938 "/><path style=" stroke:none;fill-rule:nonzero;fill:#fd90c1;fill-opacity:1;" d="M 494.019531 282.472656 C 494.019531 275.09375 499.585938 269.25 506.820312 269.109375 C 514.335938 268.972656 520.320312 274.816406 520.320312 282.195312 C 520.320312 289.429688 514.617188 295.414062 507.378906 295.554688 C 500.003906 295.554688 494.15625 289.847656 494.019531 282.472656 Z M 494.019531 282.472656 "/><path style=" stroke:none;fill-rule:nonzero;fill:#fd90c1;fill-opacity:1;" d="M 69.949219 581.835938 C 69.949219 589.214844 64.246094 594.921875 56.867188 594.921875 C 49.632812 594.921875 43.785156 589.074219 43.785156 581.835938 C 43.785156 574.738281 49.769531 568.753906 57.007812 568.753906 C 64.105469 568.753906 69.949219 574.601562 69.949219 581.835938 Z M 69.949219 581.835938 "/><path style=" stroke:none;fill-rule:nonzero;fill:#fd90c1;fill-opacity:1;" d="M 569.171875 57.425781 C 569.035156 50.1875 575.019531 44.203125 582.117188 44.34375 C 589.214844 44.34375 594.921875 50.1875 595.058594 57.148438 C 595.199219 64.246094 589.214844 70.367188 581.976562 70.367188 C 575.15625 70.367188 569.3125 64.523438 569.171875 57.425781 Z M 569.171875 57.425781 "/><path style=" stroke:none;fill-rule:nonzero;fill:#fd90c1;fill-opacity:1;" d="M 231.8125 544.398438 C 231.8125 537.441406 237.519531 531.734375 244.476562 531.734375 C 251.433594 531.734375 257.003906 537.578125 257.003906 544.539062 C 256.863281 551.359375 251.433594 556.925781 244.617188 557.066406 C 237.65625 557.066406 231.8125 551.359375 231.8125 544.398438 Z M 231.8125 544.398438 "/><path style=" stroke:none;fill-rule:nonzero;fill:#fd90c1;fill-opacity:1;" d="M 119.359375 581.699219 C 119.359375 574.738281 125.203125 569.035156 132.164062 569.171875 C 138.980469 569.3125 144.410156 574.878906 144.410156 581.699219 C 144.410156 588.65625 138.703125 594.363281 131.882812 594.363281 C 124.925781 594.363281 119.21875 588.65625 119.359375 581.699219 Z M 119.359375 581.699219 "/><path style=" stroke:none;fill-rule:nonzero;fill:#fd90c1;fill-opacity:1;" d="M 544.679688 232.367188 C 551.777344 232.367188 557.203125 237.9375 557.203125 245.035156 C 557.203125 251.992188 551.496094 257.421875 544.398438 257.421875 C 537.578125 257.28125 532.152344 251.851562 532.011719 245.035156 C 532.152344 237.796875 537.71875 232.230469 544.679688 232.367188 Z M 544.679688 232.367188 "/><path style=" stroke:none;fill-rule:nonzero;fill:#fd90c1;fill-opacity:1;" d="M 582.117188 119.777344 C 589.214844 119.777344 594.78125 125.203125 594.78125 132.300781 C 594.78125 139.261719 589.214844 144.828125 582.117188 144.828125 C 575.296875 144.828125 569.730469 139.398438 569.589844 132.578125 C 569.589844 125.480469 575.019531 119.914062 582.117188 119.777344 Z M 582.117188 119.777344 "/><path style=" stroke:none;fill-rule:nonzero;fill:#fd90c1;fill-opacity:1;" d="M 444.191406 431.945312 C 444.191406 438.488281 438.90625 443.914062 432.222656 443.914062 C 425.683594 443.914062 420.253906 438.488281 420.253906 431.945312 C 420.117188 425.265625 425.820312 419.835938 432.503906 419.835938 C 439.042969 419.976562 444.191406 425.265625 444.191406 431.945312 Z M 444.191406 431.945312 "/><path style=" stroke:none;fill-rule:nonzero;fill:#fd90c1;fill-opacity:1;" d="M 469.941406 382.398438 C 476.480469 382.539062 481.769531 387.828125 481.632812 394.507812 C 481.632812 401.050781 476.203125 406.335938 469.664062 406.335938 C 462.980469 406.335938 457.414062 400.632812 457.695312 394.089844 C 457.832031 387.550781 463.398438 382.261719 469.941406 382.398438 Z M 469.941406 382.398438 "/><path style=" stroke:none;fill-rule:nonzero;fill:#fd90c1;fill-opacity:1;" d="M 406.617188 469.246094 C 406.617188 475.925781 401.464844 481.214844 394.925781 481.351562 C 388.246094 481.492188 382.679688 475.925781 382.679688 469.246094 C 382.816406 462.703125 388.246094 457.414062 394.785156 457.414062 C 401.328125 457.414062 406.617188 462.703125 406.617188 469.246094 Z M 406.617188 469.246094 "/><path style=" stroke:none;fill-rule:nonzero;fill:#fd90c1;fill-opacity:1;" d="M 570.5625 207.316406 C 570.5625 200.777344 575.714844 195.625 582.117188 195.625 C 588.519531 195.625 593.808594 200.914062 593.808594 207.316406 C 593.808594 213.71875 588.519531 219.007812 582.117188 219.007812 C 575.714844 219.007812 570.5625 213.859375 570.5625 207.316406 Z M 570.5625 207.316406 "/><path style=" stroke:none;fill-rule:nonzero;fill:#fd90c1;fill-opacity:1;" d="M 608.003906 19.847656 C 608.003906 13.308594 613.152344 8.15625 619.554688 8.15625 C 625.957031 8.15625 631.246094 13.308594 631.246094 19.847656 C 631.246094 26.25 625.957031 31.539062 619.554688 31.539062 C 613.152344 31.539062 608.140625 26.390625 608.003906 19.847656 Z M 608.003906 19.847656 "/><path style=" stroke:none;fill-rule:nonzero;fill:#fd90c1;fill-opacity:1;" d="M 495.550781 357.207031 C 495.550781 350.667969 500.699219 345.519531 507.238281 345.519531 C 513.640625 345.519531 518.929688 350.808594 518.929688 357.207031 C 518.929688 363.609375 513.640625 368.898438 507.238281 368.898438 C 500.699219 368.898438 495.550781 363.75 495.550781 357.207031 Z M 495.550781 357.207031 "/><path style=" stroke:none;fill-rule:nonzero;fill:#fd90c1;fill-opacity:1;" d="M 30.980469 619.277344 C 30.980469 625.816406 25.832031 630.964844 19.429688 630.964844 C 13.027344 630.964844 7.738281 625.679688 7.738281 619.277344 C 7.738281 612.875 13.027344 607.585938 19.429688 607.585938 C 25.832031 607.585938 30.980469 612.875 30.980469 619.277344 Z M 30.980469 619.277344 "/><path style=" stroke:none;fill-rule:nonzero;fill:#fd90c1;fill-opacity:1;" d="M 218.449219 581.976562 C 218.449219 588.519531 213.164062 593.667969 206.761719 593.527344 C 200.359375 593.527344 195.070312 588.101562 195.070312 581.699219 C 195.070312 575.296875 200.496094 570.007812 206.898438 570.007812 C 213.441406 570.148438 218.589844 575.4375 218.449219 581.976562 Z M 218.449219 581.976562 "/><path style=" stroke:none;fill-rule:nonzero;fill:#fd90c1;fill-opacity:1;" d="M 368.480469 506.824219 C 368.480469 513.363281 363.332031 518.511719 356.929688 518.511719 C 350.527344 518.511719 345.238281 513.222656 345.238281 506.824219 C 345.238281 500.421875 350.527344 495.132812 356.929688 495.132812 C 363.191406 495.132812 368.480469 500.421875 368.480469 506.824219 Z M 368.480469 506.824219 "/><path style=" stroke:none;fill-rule:nonzero;fill:#fd90c1;fill-opacity:1;" d="M 630.964844 94.722656 C 630.964844 101.125 625.957031 106.277344 619.691406 106.277344 C 613.429688 106.277344 608.28125 100.988281 608.28125 94.722656 C 608.28125 88.601562 613.292969 83.453125 619.414062 83.3125 C 625.679688 83.171875 630.964844 88.320312 630.964844 94.722656 Z M 630.964844 94.722656 "/><path style=" stroke:none;fill-rule:nonzero;fill:#fd90c1;fill-opacity:1;" d="M 94.308594 608.003906 C 100.707031 608.003906 105.71875 613.011719 105.71875 619.414062 C 105.71875 625.679688 100.570312 630.828125 94.167969 630.6875 C 87.90625 630.6875 83.035156 625.816406 82.894531 619.554688 C 83.035156 613.152344 87.90625 608.003906 94.308594 608.003906 Z M 94.308594 608.003906 "/><path style=" stroke:none;fill-rule:nonzero;fill:#fd90c1;fill-opacity:1;" d="M 308.21875 544.261719 C 308.21875 537.996094 313.230469 533.125 319.351562 533.125 C 325.476562 533.125 330.625 538.136719 330.625 544.261719 C 330.625 550.523438 325.335938 555.671875 319.214844 555.535156 C 312.949219 555.535156 308.21875 550.523438 308.21875 544.261719 Z M 308.21875 544.261719 "/><path style=" stroke:none;fill-rule:nonzero;fill:#fd90c1;fill-opacity:1;" d="M 544.816406 330.90625 C 538.691406 330.90625 533.542969 326.035156 533.40625 319.910156 C 533.265625 313.785156 538.554688 308.496094 544.816406 308.496094 C 550.941406 308.496094 555.949219 313.507812 555.949219 319.769531 C 555.8125 326.035156 551.078125 330.90625 544.816406 330.90625 Z M 544.816406 330.90625 "/><path style=" stroke:none;fill-rule:nonzero;fill:#fd90c1;fill-opacity:1;" d="M 619.832031 159.023438 C 625.675781 159.164062 630.550781 164.035156 630.410156 169.878906 C 630.410156 175.722656 625.398438 180.59375 619.691406 180.59375 C 613.707031 180.59375 608.835938 175.585938 608.976562 169.601562 C 609.117188 163.617188 613.988281 158.882812 619.832031 159.023438 Z M 619.832031 159.023438 "/><path style=" stroke:none;fill-rule:nonzero;fill:#fd90c1;fill-opacity:1;" d="M 169.320312 629.992188 C 163.335938 629.992188 158.605469 625.121094 158.605469 619.277344 C 158.605469 613.292969 163.617188 608.421875 169.738281 608.558594 C 175.722656 608.699219 180.316406 613.429688 180.179688 619.414062 C 180.039062 625.398438 175.167969 630.132812 169.320312 629.992188 Z M 169.320312 629.992188 "/><path style=" stroke:none;fill-rule:nonzero;fill:#fd90c1;fill-opacity:1;" d="M 281.914062 592.414062 C 275.929688 592.414062 271.199219 587.824219 271.335938 581.699219 C 271.335938 575.851562 275.929688 571.261719 281.777344 571.261719 C 287.761719 571.261719 292.492188 575.992188 292.492188 581.835938 C 292.351562 587.683594 287.761719 592.414062 281.914062 592.414062 Z M 281.914062 592.414062 "/><path style=" stroke:none;fill-rule:nonzero;fill:#fd90c1;fill-opacity:1;" d="M 571.539062 282.332031 C 571.539062 276.488281 576.550781 271.617188 582.394531 271.753906 C 588.101562 271.894531 592.695312 276.625 592.695312 282.332031 C 592.695312 288.316406 587.824219 293.050781 581.976562 292.910156 C 576.269531 292.769531 571.539062 288.039062 571.539062 282.332031 Z M 571.539062 282.332031 "/><path style=" stroke:none;fill-rule:nonzero;fill:#fd90c1;fill-opacity:1;" d="M 647.25 57.148438 C 647.25 51.859375 651.703125 47.40625 657.132812 47.40625 C 662.699219 47.40625 667.152344 51.859375 667.011719 57.425781 C 666.875 62.851562 662.558594 67.167969 657.269531 67.167969 C 651.703125 67.308594 647.25 62.714844 647.25 57.148438 Z M 647.25 57.148438 "/><path style=" stroke:none;fill-rule:nonzero;fill:#fd90c1;fill-opacity:1;" d="M 46.988281 656.851562 C 46.988281 651.285156 51.441406 646.972656 57.007812 647.109375 C 62.4375 647.25 66.75 651.566406 66.75 656.992188 C 66.75 662.558594 62.296875 666.875 56.589844 666.875 C 51.300781 666.59375 46.988281 662.28125 46.988281 656.851562 Z M 46.988281 656.851562 "/><path style=" stroke:none;fill-rule:nonzero;fill:#fd90c1;fill-opacity:1;" d="M 469.382812 479.125 C 463.957031 479.125 459.640625 474.671875 459.78125 469.246094 C 459.78125 463.957031 463.957031 459.78125 469.246094 459.640625 C 474.671875 459.503906 479.125 463.957031 479.125 469.246094 C 479.125 474.535156 474.671875 479.125 469.382812 479.125 Z M 469.382812 479.125 "/><path style=" stroke:none;fill-rule:nonzero;fill:#fd90c1;fill-opacity:1;" d="M 431.808594 497.21875 C 437.234375 497.21875 441.6875 501.8125 441.550781 507.101562 C 441.410156 512.390625 436.816406 516.84375 431.527344 516.703125 C 426.238281 516.566406 422.0625 512.25 422.0625 506.960938 C 422.203125 501.535156 426.519531 497.082031 431.808594 497.21875 Z M 431.808594 497.21875 "/><path style=" stroke:none;fill-rule:nonzero;fill:#fd90c1;fill-opacity:1;" d="M 234.734375 619.414062 C 234.734375 613.988281 239.050781 609.671875 244.476562 609.671875 C 249.90625 609.671875 254.359375 614.265625 254.21875 619.554688 C 254.078125 624.703125 249.765625 629.019531 244.617188 629.15625 C 239.050781 629.15625 234.734375 624.84375 234.734375 619.414062 Z M 234.734375 619.414062 "/><path style=" stroke:none;fill-rule:nonzero;fill:#fd90c1;fill-opacity:1;" d="M 619.554688 235.011719 C 624.980469 234.875 629.296875 239.1875 629.296875 244.617188 C 629.296875 249.90625 625.261719 254.21875 619.972656 254.359375 C 614.542969 254.496094 610.089844 250.324219 609.953125 244.894531 C 609.8125 239.746094 614.125 235.152344 619.554688 235.011719 Z M 619.554688 235.011719 "/><path style=" stroke:none;fill-rule:nonzero;fill:#fd90c1;fill-opacity:1;" d="M 507.238281 422.480469 C 512.667969 422.480469 516.980469 426.796875 516.84375 432.222656 C 516.84375 437.652344 512.527344 441.828125 506.960938 441.828125 C 501.671875 441.6875 497.496094 437.511719 497.359375 432.222656 C 497.359375 427.074219 501.8125 422.480469 507.238281 422.480469 Z M 507.238281 422.480469 "/><path style=" stroke:none;fill-rule:nonzero;fill:#fd90c1;fill-opacity:1;" d="M 141.347656 656.851562 C 141.347656 662.140625 137.035156 666.457031 131.746094 666.316406 C 126.59375 666.316406 122.28125 661.863281 122.28125 656.714844 C 122.28125 651.566406 126.734375 647.109375 131.882812 647.25 C 137.171875 647.25 141.347656 651.703125 141.347656 656.851562 Z M 141.347656 656.851562 "/><path style=" stroke:none;fill-rule:nonzero;fill:#fd90c1;fill-opacity:1;" d="M 657.132812 141.765625 C 651.84375 141.765625 647.667969 137.453125 647.667969 132.164062 C 647.667969 126.875 651.980469 122.699219 657.269531 122.835938 C 662.558594 122.835938 666.734375 127.152344 666.734375 132.441406 C 666.59375 137.730469 662.421875 141.765625 657.132812 141.765625 Z M 657.132812 141.765625 "/><path style=" stroke:none;fill-rule:nonzero;fill:#fd90c1;fill-opacity:1;" d="M 544.679688 385.460938 C 549.828125 385.460938 554.003906 389.636719 554.140625 394.648438 C 554.28125 399.796875 549.828125 404.25 544.539062 404.109375 C 539.390625 403.972656 535.351562 399.796875 535.351562 394.648438 C 535.492188 389.496094 539.527344 385.460938 544.679688 385.460938 Z M 544.679688 385.460938 "/><path style=" stroke:none;fill-rule:nonzero;fill:#fd90c1;fill-opacity:1;" d="M 394.507812 535.074219 C 399.65625 535.074219 403.691406 539.25 403.691406 544.398438 C 403.691406 549.6875 399.519531 553.863281 394.089844 553.585938 C 388.941406 553.445312 384.90625 549.132812 385.042969 544.121094 C 385.042969 539.109375 389.359375 534.9375 394.507812 535.074219 Z M 394.507812 535.074219 "/><path style=" stroke:none;fill-rule:nonzero;fill:#fd90c1;fill-opacity:1;" d="M 356.792969 572.929688 C 361.800781 572.929688 365.976562 576.964844 365.976562 581.835938 C 365.976562 586.707031 361.800781 590.882812 356.929688 590.882812 C 352.058594 590.882812 348.164062 586.988281 348.023438 582.117188 C 347.882812 576.964844 351.78125 572.929688 356.792969 572.929688 Z M 356.792969 572.929688 "/><path style=" stroke:none;fill-rule:nonzero;fill:#fd90c1;fill-opacity:1;" d="M 582.117188 365.976562 C 577.246094 365.976562 573.347656 362.078125 573.347656 357.207031 C 573.347656 352.476562 577.105469 348.71875 581.976562 348.578125 C 586.988281 348.578125 590.882812 352.335938 590.882812 357.207031 C 591.023438 362.082031 587.125 365.976562 582.117188 365.976562 Z M 582.117188 365.976562 "/><path style=" stroke:none;fill-rule:nonzero;fill:#fd90c1;fill-opacity:1;" d="M 648.640625 207.316406 C 648.640625 202.585938 652.398438 198.6875 657.132812 198.828125 C 661.863281 198.828125 665.761719 202.722656 665.761719 207.457031 C 665.761719 212.050781 661.722656 216.085938 657.132812 216.085938 C 652.398438 215.945312 648.640625 212.050781 648.640625 207.316406 Z M 648.640625 207.316406 "/><path style=" stroke:none;fill-rule:nonzero;fill:#fd90c1;fill-opacity:1;" d="M 206.761719 648.363281 C 211.492188 648.222656 215.390625 651.980469 215.390625 656.714844 C 215.527344 661.585938 211.769531 665.34375 207.039062 665.34375 C 202.308594 665.34375 198.410156 661.722656 198.269531 656.992188 C 198.132812 652.398438 202.027344 648.363281 206.761719 648.363281 Z M 206.761719 648.363281 "/><path style=" stroke:none;fill-rule:nonzero;fill:#fd90c1;fill-opacity:1;" d="M 702.921875 19.847656 C 702.921875 24.441406 699.300781 28.199219 694.707031 28.199219 C 690.117188 28.335938 686.078125 24.300781 686.21875 19.570312 C 686.359375 15.117188 690.117188 11.21875 694.707031 11.359375 C 699.300781 11.496094 702.921875 15.253906 702.921875 19.847656 Z M 702.921875 19.847656 "/><path style=" stroke:none;fill-rule:nonzero;fill:#fd90c1;fill-opacity:1;" d="M 19.429688 702.640625 C 14.699219 702.640625 11.078125 699.023438 11.078125 694.292969 C 11.078125 689.558594 14.699219 685.941406 19.292969 685.941406 C 23.882812 685.941406 27.640625 689.558594 27.640625 694.152344 C 27.78125 698.882812 24.023438 702.640625 19.429688 702.640625 Z M 19.429688 702.640625 "/><path style=" stroke:none;fill-rule:nonzero;fill:#fd90c1;fill-opacity:1;" d="M 311.28125 619.554688 C 311.140625 615.101562 314.621094 611.34375 319.074219 611.203125 C 323.667969 611.066406 327.5625 614.824219 327.5625 619.414062 C 327.5625 623.730469 323.804688 627.488281 319.492188 627.625 C 315.039062 627.625 311.28125 624.007812 311.28125 619.554688 Z M 311.28125 619.554688 "/><path style=" stroke:none;fill-rule:nonzero;fill:#fd90c1;fill-opacity:1;" d="M 619.832031 311.699219 C 624.285156 311.699219 627.90625 315.316406 627.90625 319.769531 C 627.90625 324.363281 624.148438 327.980469 619.554688 327.84375 C 615.101562 327.703125 611.480469 323.945312 611.621094 319.632812 C 611.621094 315.179688 615.238281 311.699219 619.832031 311.699219 Z M 619.832031 311.699219 "/><path style=" stroke:none;fill-rule:nonzero;fill:#fd90c1;fill-opacity:1;" d="M 686.777344 94.722656 C 686.777344 90.269531 690.253906 86.929688 694.707031 86.929688 C 699.023438 86.929688 702.640625 90.410156 702.640625 94.722656 C 702.640625 99.179688 698.882812 102.796875 694.429688 102.65625 C 690.117188 102.65625 686.777344 99.039062 686.777344 94.722656 Z M 686.777344 94.722656 "/><path style=" stroke:none;fill-rule:nonzero;fill:#fd90c1;fill-opacity:1;" d="M 102.238281 694.292969 C 102.238281 698.746094 98.898438 702.222656 94.445312 702.222656 C 89.992188 702.222656 86.234375 698.605469 86.375 694.152344 C 86.511719 689.835938 90.132812 686.359375 94.445312 686.359375 C 98.761719 686.359375 102.238281 689.976562 102.238281 694.292969 Z M 102.238281 694.292969 "/><path style=" stroke:none;fill-rule:nonzero;fill:#fd90c1;fill-opacity:1;" d="M 162.085938 694.429688 C 161.945312 690.394531 165.425781 686.914062 169.320312 687.054688 C 173.21875 687.054688 176.421875 690.253906 176.421875 694.152344 C 176.558594 698.328125 173.21875 701.667969 169.183594 701.527344 C 165.5625 701.527344 162.222656 698.328125 162.085938 694.429688 Z M 162.085938 694.429688 "/><path style=" stroke:none;fill-rule:nonzero;fill:#fd90c1;fill-opacity:1;" d="M 694.988281 162.640625 C 698.882812 162.78125 701.945312 165.980469 701.945312 169.878906 C 701.808594 173.914062 698.464844 177.117188 694.429688 176.976562 C 690.394531 176.835938 687.332031 173.496094 687.609375 169.324219 C 687.75 165.285156 690.949219 162.503906 694.988281 162.640625 Z M 694.988281 162.640625 "/><path style=" stroke:none;fill-rule:nonzero;fill:#fd90c1;fill-opacity:1;" d="M 657.550781 275.09375 C 661.445312 275.234375 664.507812 278.4375 664.507812 282.332031 C 664.367188 286.367188 661.027344 289.570312 656.992188 289.429688 C 652.957031 289.292969 649.894531 285.949219 650.171875 281.777344 C 650.3125 277.878906 653.511719 274.957031 657.550781 275.09375 Z M 657.550781 275.09375 "/><path style=" stroke:none;fill-rule:nonzero;fill:#fd90c1;fill-opacity:1;" d="M 274.679688 656.992188 C 274.539062 652.957031 278.019531 649.476562 281.914062 649.617188 C 285.8125 649.617188 289.011719 652.816406 289.011719 656.714844 C 289.152344 660.890625 285.8125 664.230469 281.777344 664.089844 C 278.019531 664.089844 274.679688 660.890625 274.679688 656.992188 Z M 274.679688 656.992188 "/><path style=" stroke:none;fill-rule:nonzero;fill:#fd90c1;fill-opacity:1;" d="M 506.960938 500.003906 C 510.859375 500.140625 513.921875 503.203125 513.921875 507.238281 C 513.921875 511.414062 510.578125 514.476562 506.542969 514.476562 C 502.648438 514.335938 499.445312 511.136719 499.445312 507.238281 C 499.585938 503.203125 502.925781 500.003906 506.960938 500.003906 Z M 506.960938 500.003906 "/><path style=" stroke:none;fill-rule:nonzero;fill:#fd90c1;fill-opacity:1;" d="M 223.183594 0.503906 C 213.164062 9.828125 197.15625 7.324219 191.589844 0.503906 C 202.167969 0.503906 212.328125 0.503906 223.183594 0.503906 Z M 223.183594 0.503906 "/><path style=" stroke:none;fill-rule:nonzero;fill:#fd90c1;fill-opacity:1;" d="M 544.398438 476.761719 C 540.503906 476.761719 537.300781 473.421875 537.300781 469.523438 C 537.441406 465.765625 540.503906 462.703125 544.261719 462.703125 C 548.019531 462.703125 551.078125 465.765625 551.21875 469.523438 C 551.359375 473.421875 548.296875 476.761719 544.398438 476.761719 Z M 544.398438 476.761719 "/><path style=" stroke:none;fill-rule:nonzero;fill:#fd90c1;fill-opacity:1;" d="M 462.285156 544.539062 C 462.148438 540.78125 465.207031 537.578125 469.105469 537.441406 C 473.003906 537.300781 476.066406 540.222656 476.34375 543.980469 C 476.480469 548.019531 473.421875 551.21875 469.382812 551.21875 C 465.488281 551.359375 462.425781 548.296875 462.285156 544.539062 Z M 462.285156 544.539062 "/><path style=" stroke:none;fill-rule:nonzero;fill:#fd90c1;fill-opacity:1;" d="M 425.125 581.835938 C 425.125 578.078125 428.050781 575.15625 431.667969 575.019531 C 435.425781 575.019531 438.625 578.078125 438.625 581.835938 C 438.488281 585.457031 435.425781 588.519531 431.804688 588.378906 C 428.1875 588.519531 425.125 585.59375 425.125 581.835938 Z M 425.125 581.835938 "/><path style=" stroke:none;fill-rule:nonzero;fill:#fd90c1;fill-opacity:1;" d="M 588.796875 432.222656 C 588.796875 435.980469 585.875 438.90625 582.117188 438.90625 C 578.496094 438.90625 575.433594 435.980469 575.296875 432.363281 C 575.15625 428.605469 578.496094 425.40625 582.253906 425.542969 C 586.011719 425.542969 588.9375 428.605469 588.796875 432.222656 Z M 588.796875 432.222656 "/><g clip-rule="nonzero" clip-path="url(#c7bdf3a912)"><path style=" stroke:none;fill-rule:nonzero;fill:#fd90c1;fill-opacity:1;" d="M 0.921875 222.765625 C 0.921875 212.050781 0.921875 201.890625 0.921875 191.589844 C 8.296875 197.15625 9.550781 214.136719 0.921875 222.765625 Z M 0.921875 222.765625 "/></g><path style=" stroke:none;fill-rule:nonzero;fill:#fd90c1;fill-opacity:1;" d="M 726.023438 57.285156 C 726.023438 53.945312 728.808594 51.023438 732.148438 51.023438 C 735.488281 51.023438 738.269531 53.808594 738.269531 57.285156 C 738.269531 60.625 735.488281 63.550781 732.148438 63.550781 C 728.808594 63.550781 726.023438 60.625 726.023438 57.285156 Z M 726.023438 57.285156 "/><path style=" stroke:none;fill-rule:nonzero;fill:#fd90c1;fill-opacity:1;" d="M 613.570312 394.230469 C 613.847656 390.890625 617.050781 388.246094 620.25 388.523438 C 623.589844 388.800781 626.09375 391.863281 625.816406 395.34375 C 625.539062 398.683594 622.335938 401.328125 619.136719 401.050781 C 615.796875 400.632812 613.292969 397.570312 613.570312 394.230469 Z M 613.570312 394.230469 "/><path style=" stroke:none;fill-rule:nonzero;fill:#fd90c1;fill-opacity:1;" d="M 244.335938 700.414062 C 240.859375 700.414062 238.214844 697.632812 238.214844 694.292969 C 238.214844 690.8125 240.996094 688.167969 244.476562 688.167969 C 247.957031 688.167969 250.601562 690.8125 250.601562 694.292969 C 250.601562 697.769531 247.816406 700.414062 244.335938 700.414062 Z M 244.335938 700.414062 "/><path style=" stroke:none;fill-rule:nonzero;fill:#fd90c1;fill-opacity:1;" d="M 50.746094 731.867188 C 50.746094 728.390625 53.527344 725.746094 56.867188 725.746094 C 60.347656 725.746094 62.992188 728.390625 62.992188 731.867188 C 62.992188 735.347656 60.207031 737.992188 56.867188 737.992188 C 53.390625 737.992188 50.746094 735.207031 50.746094 731.867188 Z M 50.746094 731.867188 "/><path style=" stroke:none;fill-rule:nonzero;fill:#fd90c1;fill-opacity:1;" d="M 388.246094 619.414062 C 388.246094 615.9375 390.890625 613.292969 394.367188 613.152344 C 397.847656 613.152344 400.632812 615.796875 400.632812 619.136719 C 400.632812 622.617188 397.988281 625.261719 394.507812 625.398438 C 391.027344 625.539062 388.246094 622.894531 388.246094 619.414062 Z M 388.246094 619.414062 "/><path style=" stroke:none;fill-rule:nonzero;fill:#fd90c1;fill-opacity:1;" d="M 694.707031 250.601562 C 691.367188 250.601562 688.722656 247.957031 688.722656 244.753906 C 688.722656 241.554688 691.507812 238.910156 694.847656 238.910156 C 698.050781 238.910156 700.554688 241.414062 700.554688 244.617188 C 700.554688 247.957031 698.050781 250.601562 694.707031 250.601562 Z M 694.707031 250.601562 "/><path style=" stroke:none;fill-rule:nonzero;fill:#fd90c1;fill-opacity:1;" d="M 726.578125 132.441406 C 726.441406 129.238281 728.945312 126.59375 732.148438 126.734375 C 735.070312 126.734375 737.714844 129.238281 737.714844 132.164062 C 737.851562 135.222656 735.207031 138.007812 732.148438 138.007812 C 729.222656 137.867188 726.71875 135.503906 726.578125 132.441406 Z M 726.578125 132.441406 "/><path style=" stroke:none;fill-rule:nonzero;fill:#fd90c1;fill-opacity:1;" d="M 126.316406 731.867188 C 126.316406 728.808594 129.101562 726.164062 132.164062 726.300781 C 135.222656 726.441406 137.449219 728.808594 137.589844 731.867188 C 137.589844 735.070312 135.085938 737.574219 131.882812 737.4375 C 128.683594 737.296875 126.316406 734.792969 126.316406 731.867188 Z M 126.316406 731.867188 "/><path style=" stroke:none;fill-rule:nonzero;fill:#fd90c1;fill-opacity:1;" d="M 651.84375 357.207031 C 651.84375 354.425781 654.347656 352.058594 657.132812 352.058594 C 660.191406 352.058594 662.421875 354.566406 662.28125 357.625 C 662.140625 360.550781 659.777344 362.636719 656.851562 362.636719 C 654.207031 362.359375 651.84375 359.992188 651.84375 357.207031 Z M 651.84375 357.207031 "/><path style=" stroke:none;fill-rule:nonzero;fill:#fd90c1;fill-opacity:1;" d="M 294.300781 0.921875 C 289.152344 5.792969 275.929688 6.070312 270.222656 1.058594 C 272.730469 0.0859375 291.238281 -0.0546875 294.300781 0.921875 Z M 294.300781 0.921875 "/><path style=" stroke:none;fill-rule:nonzero;fill:#fd90c1;fill-opacity:1;" d="M 356.792969 662.140625 C 353.867188 662.140625 351.640625 659.777344 351.640625 656.851562 C 351.640625 653.929688 353.867188 651.703125 356.792969 651.566406 C 359.714844 651.566406 362.359375 654.070312 362.21875 656.992188 C 362.078125 659.914062 359.574219 662.140625 356.792969 662.140625 Z M 356.792969 662.140625 "/><g clip-rule="nonzero" clip-path="url(#8753b29e4e)"><path style=" stroke:none;fill-rule:nonzero;fill:#fd90c1;fill-opacity:1;" d="M 0.921875 294.441406 C 0.921875 285.8125 0.921875 278.019531 0.921875 269.945312 C 6.070312 273.84375 6.488281 287.898438 0.921875 294.441406 Z M 0.921875 294.441406 "/></g><path style=" stroke:none;fill-rule:nonzero;fill:#fd90c1;fill-opacity:1;" d="M 732.148438 211.769531 C 729.78125 211.769531 727.695312 209.683594 727.554688 207.316406 C 727.554688 204.8125 729.78125 202.585938 732.285156 202.722656 C 734.792969 202.863281 736.601562 204.949219 736.601562 207.457031 C 736.601562 209.960938 734.652344 211.910156 732.148438 211.769531 Z M 732.148438 211.769531 "/><path style=" stroke:none;fill-rule:nonzero;fill:#fd90c1;fill-opacity:1;" d="M 202.445312 731.730469 C 202.445312 729.222656 204.394531 727.277344 207.039062 727.277344 C 209.542969 727.277344 211.492188 729.222656 211.632812 731.730469 C 211.632812 734.234375 209.40625 736.460938 206.898438 736.324219 C 204.253906 736.320312 202.308594 734.234375 202.445312 731.730469 Z M 202.445312 731.730469 "/><path style=" stroke:none;fill-rule:nonzero;fill:#fd90c1;fill-opacity:1;" d="M 323.390625 694.152344 C 323.390625 696.378906 321.859375 698.1875 319.632812 698.328125 C 317.265625 698.464844 315.179688 696.65625 315.179688 694.292969 C 315.039062 692.066406 317.125 689.976562 319.351562 689.976562 C 321.578125 690.253906 323.390625 691.925781 323.390625 694.152344 Z M 323.390625 694.152344 "/><path style=" stroke:none;fill-rule:nonzero;fill:#fd90c1;fill-opacity:1;" d="M 23.464844 769.308594 C 23.464844 771.535156 21.9375 773.34375 19.570312 773.480469 C 17.203125 773.621094 15.253906 771.671875 15.117188 769.445312 C 15.117188 767.21875 17.203125 765.132812 19.429688 765.269531 C 21.65625 765.269531 23.464844 767.082031 23.464844 769.308594 Z M 23.464844 769.308594 "/><path style=" stroke:none;fill-rule:nonzero;fill:#fd90c1;fill-opacity:1;" d="M 694.570312 315.59375 C 696.9375 315.59375 698.882812 317.542969 698.746094 319.910156 C 698.605469 321.996094 696.796875 323.808594 694.570312 323.945312 C 692.203125 323.945312 690.394531 322.136719 690.394531 319.632812 C 690.671875 317.40625 692.34375 315.734375 694.570312 315.59375 Z M 694.570312 315.59375 "/><path style=" stroke:none;fill-rule:nonzero;fill:#fd90c1;fill-opacity:1;" d="M 544.261719 540.640625 C 546.488281 540.640625 548.296875 542.171875 548.4375 544.539062 C 548.574219 546.90625 546.765625 548.851562 544.398438 548.992188 C 542.035156 548.992188 540.085938 547.042969 540.085938 544.816406 C 540.222656 542.453125 542.035156 540.640625 544.261719 540.640625 Z M 544.261719 540.640625 "/><path style=" stroke:none;fill-rule:nonzero;fill:#fd90c1;fill-opacity:1;" d="M 94.445312 773.066406 C 92.496094 773.066406 90.828125 771.535156 90.6875 769.585938 C 90.550781 767.496094 92.078125 765.6875 94.304688 765.550781 C 96.253906 765.550781 97.925781 767.078125 98.203125 769.027344 C 98.34375 770.976562 96.535156 772.925781 94.445312 773.066406 Z M 94.445312 773.066406 "/><path style=" stroke:none;fill-rule:nonzero;fill:#fd90c1;fill-opacity:1;" d="M 465.625 619.414062 C 465.625 617.464844 467.019531 615.796875 468.964844 615.65625 C 471.054688 615.519531 472.863281 617.1875 473.003906 619.277344 C 473.003906 621.222656 471.195312 623.171875 469.105469 623.035156 C 467.296875 623.035156 465.765625 621.363281 465.625 619.414062 Z M 465.625 619.414062 "/><path style=" stroke:none;fill-rule:nonzero;fill:#fd90c1;fill-opacity:1;" d="M 769.722656 91.105469 C 771.671875 91.105469 773.34375 92.636719 773.34375 94.585938 C 773.480469 96.8125 771.8125 98.34375 769.722656 98.34375 C 767.777344 98.34375 766.105469 96.8125 765.964844 94.863281 C 765.828125 92.914062 767.636719 91.105469 769.722656 91.105469 Z M 769.722656 91.105469 "/><path style=" stroke:none;fill-rule:nonzero;fill:#fd90c1;fill-opacity:1;" d="M 615.65625 469.800781 C 615.65625 467.851562 617.050781 466.183594 619.136719 466.042969 C 621.222656 465.90625 623.035156 467.574219 623.171875 469.664062 C 623.171875 471.75 621.503906 473.421875 619.277344 473.421875 C 617.1875 473.28125 615.65625 471.75 615.65625 469.800781 Z M 615.65625 469.800781 "/><path style=" stroke:none;fill-rule:nonzero;fill:#fd90c1;fill-opacity:1;" d="M 765.964844 19.988281 C 765.964844 18.179688 767.496094 16.367188 769.445312 16.230469 C 771.535156 16.089844 773.34375 17.621094 773.34375 19.847656 C 773.34375 21.9375 771.949219 23.464844 770.003906 23.605469 C 767.777344 23.605469 765.964844 21.9375 765.964844 19.988281 Z M 765.964844 19.988281 "/><path style=" stroke:none;fill-rule:nonzero;fill:#fd90c1;fill-opacity:1;" d="M 503.203125 582.253906 C 503.203125 580.308594 504.59375 578.636719 506.542969 578.496094 C 508.632812 578.359375 510.441406 580.027344 510.578125 582.117188 C 510.578125 584.203125 508.910156 585.875 506.683594 585.875 C 504.734375 585.875 503.203125 584.34375 503.203125 582.253906 Z M 503.203125 582.253906 "/><path style=" stroke:none;fill-rule:nonzero;fill:#fd90c1;fill-opacity:1;" d="M 581.699219 510.859375 C 579.75 510.859375 578.21875 509.328125 578.21875 507.238281 C 578.21875 505.152344 579.890625 503.480469 581.976562 503.480469 C 583.925781 503.621094 585.59375 505.152344 585.59375 507.101562 C 585.59375 509.1875 583.785156 510.996094 581.699219 510.859375 Z M 581.699219 510.859375 "/><path style=" stroke:none;fill-rule:nonzero;fill:#fd90c1;fill-opacity:1;" d="M 732.148438 278.992188 C 733.679688 278.992188 735.207031 280.382812 735.347656 282.054688 C 735.488281 283.863281 733.957031 285.535156 732.148438 285.535156 C 730.476562 285.535156 729.085938 284.140625 728.945312 282.472656 C 728.945312 280.664062 730.335938 278.992188 732.148438 278.992188 Z M 732.148438 278.992188 "/><path style=" stroke:none;fill-rule:nonzero;fill:#fd90c1;fill-opacity:1;" d="M 428.605469 656.992188 C 428.464844 655.324219 429.71875 653.929688 431.390625 653.792969 C 433.335938 653.652344 434.867188 654.90625 434.867188 656.714844 C 435.007812 658.382812 433.753906 659.777344 432.085938 659.914062 C 430.277344 660.195312 428.746094 658.800781 428.605469 656.992188 Z M 428.605469 656.992188 "/><path style=" stroke:none;fill-rule:nonzero;fill:#fd90c1;fill-opacity:1;" d="M 281.777344 728.667969 C 283.585938 728.667969 285.117188 730.058594 284.976562 731.867188 C 284.976562 733.539062 283.585938 734.792969 281.914062 734.929688 C 280.105469 734.929688 278.574219 733.539062 278.714844 731.730469 C 278.714844 730.058594 280.105469 728.667969 281.777344 728.667969 Z M 281.777344 728.667969 "/><path style=" stroke:none;fill-rule:nonzero;fill:#fd90c1;fill-opacity:1;" d="M 349.972656 0.503906 C 354.703125 0.503906 359.4375 0.503906 364.445312 0.503906 C 361.246094 3.007812 355.121094 3.148438 349.972656 0.503906 Z M 349.972656 0.503906 "/><g clip-rule="nonzero" clip-path="url(#25ea1994e9)"><path style=" stroke:none;fill-rule:nonzero;fill:#fd90c1;fill-opacity:1;" d="M 0.78125 349.695312 C 3.425781 354.566406 3.425781 359.296875 1.335938 364.863281 C 0.640625 362.777344 0.921875 361.246094 0.921875 359.851562 C 0.921875 358.042969 0.921875 356.375 0.921875 354.566406 C 0.78125 352.894531 0.78125 351.222656 0.78125 349.695312 Z M 0.78125 349.695312 "/></g><path style=" stroke:none;fill-rule:nonzero;fill:#fd90c1;fill-opacity:1;" d="M 656.992188 429.71875 C 658.382812 429.582031 659.636719 430.832031 659.777344 432.085938 C 659.914062 433.335938 658.664062 434.730469 657.269531 434.867188 C 655.878906 435.007812 654.625 433.894531 654.625 432.503906 C 654.625 430.972656 655.601562 429.71875 656.992188 429.71875 Z M 656.992188 429.71875 "/><path style=" stroke:none;fill-rule:nonzero;fill:#fd90c1;fill-opacity:1;" d="M 767.078125 169.878906 C 767.078125 168.347656 768.054688 167.234375 769.585938 167.234375 C 770.976562 167.234375 772.230469 168.347656 772.230469 169.738281 C 772.230469 170.992188 770.976562 172.382812 769.722656 172.382812 C 768.332031 172.382812 767.21875 171.269531 767.078125 169.878906 Z M 767.078125 169.878906 "/><path style=" stroke:none;fill-rule:nonzero;fill:#fd90c1;fill-opacity:1;" d="M 396.875 694.292969 C 396.875 695.820312 395.761719 696.9375 394.230469 696.796875 C 392.835938 696.65625 392.003906 695.824219 391.722656 694.429688 C 391.585938 693.039062 392.835938 691.785156 394.230469 691.648438 C 395.761719 691.785156 396.875 692.898438 396.875 694.292969 Z M 396.875 694.292969 "/><path style=" stroke:none;fill-rule:nonzero;fill:#fd90c1;fill-opacity:1;" d="M 166.816406 769.308594 C 166.816406 767.914062 168.070312 766.664062 169.460938 766.800781 C 170.851562 766.800781 171.964844 768.054688 171.964844 769.585938 C 171.828125 771.117188 170.992188 771.8125 169.601562 771.949219 C 168.070312 771.953125 166.816406 770.699219 166.816406 769.308594 Z M 166.816406 769.308594 "/><path style=" stroke:none;fill-rule:nonzero;fill:#fd90c1;fill-opacity:1;" d="M 694.570312 392.28125 C 695.40625 393.394531 696.378906 394.089844 696.378906 394.785156 C 696.378906 395.34375 695.542969 396.316406 694.847656 396.457031 C 693.734375 396.734375 692.898438 395.898438 693.039062 394.785156 C 693.039062 394.089844 693.734375 393.394531 694.570312 392.28125 Z M 694.570312 392.28125 "/><path style=" stroke:none;fill-rule:nonzero;fill:#fd90c1;fill-opacity:1;" d="M 579.054688 582.117188 C 580.445312 581.28125 581.28125 580.585938 581.976562 580.585938 C 582.535156 580.585938 583.367188 581.699219 583.367188 582.253906 C 583.367188 582.8125 582.394531 583.925781 581.835938 583.925781 C 581.140625 583.925781 580.445312 583.089844 579.054688 582.117188 Z M 579.054688 582.117188 "/><path style=" stroke:none;fill-rule:nonzero;fill:#fd90c1;fill-opacity:1;" d="M 732.007812 354.703125 C 732.84375 355.816406 733.816406 356.511719 733.816406 357.207031 C 733.816406 357.765625 732.980469 358.738281 732.285156 358.878906 C 731.171875 359.15625 730.335938 358.320312 730.476562 357.207031 C 730.617188 356.511719 731.3125 355.957031 732.007812 354.703125 Z M 732.007812 354.703125 "/><path style=" stroke:none;fill-rule:nonzero;fill:#fd90c1;fill-opacity:1;" d="M 804.65625 206.898438 C 805.910156 206.203125 806.882812 205.367188 807.300781 205.648438 C 807.996094 205.925781 808.691406 206.898438 808.832031 207.734375 C 808.832031 208.152344 807.578125 209.125 807.023438 208.988281 C 806.328125 208.847656 805.769531 207.875 804.65625 206.898438 Z M 804.65625 206.898438 "/><path style=" stroke:none;fill-rule:nonzero;fill:#fd90c1;fill-opacity:1;" d="M 506.960938 654.625 C 507.796875 655.878906 508.492188 656.4375 508.492188 657.132812 C 508.632812 658.246094 507.796875 659.082031 506.683594 658.800781 C 505.988281 658.664062 505.152344 657.6875 505.152344 657.132812 C 505.152344 656.4375 506.125 655.878906 506.960938 654.625 Z M 506.960938 654.625 "/><path style=" stroke:none;fill-rule:nonzero;fill:#fd90c1;fill-opacity:1;" d="M 769.308594 247.539062 C 768.609375 246.007812 767.914062 245.171875 768.054688 244.335938 C 768.054688 243.78125 769.308594 242.945312 769.863281 243.085938 C 770.421875 243.222656 771.394531 244.199219 771.394531 244.753906 C 771.253906 245.589844 770.421875 246.148438 769.308594 247.539062 Z M 769.308594 247.539062 "/><path style=" stroke:none;fill-rule:nonzero;fill:#fd90c1;fill-opacity:1;" d="M 807.300781 129.796875 C 807.996094 131.050781 808.832031 131.746094 808.832031 132.578125 C 808.832031 133.136719 807.859375 134.109375 807.164062 134.109375 C 806.050781 134.25 805.214844 133.414062 805.492188 132.164062 C 805.632812 131.464844 806.328125 130.910156 807.300781 129.796875 Z M 807.300781 129.796875 "/><path style=" stroke:none;fill-rule:nonzero;fill:#fd90c1;fill-opacity:1;" d="M 804.65625 57.285156 C 805.910156 56.449219 806.605469 55.476562 807.164062 55.617188 C 807.859375 55.894531 808.691406 56.730469 808.832031 57.425781 C 808.972656 57.84375 807.71875 58.957031 807.164062 58.957031 C 806.464844 58.957031 805.769531 58.121094 804.65625 57.285156 Z M 804.65625 57.285156 "/><path style=" stroke:none;fill-rule:nonzero;fill:#fd90c1;fill-opacity:1;" d="M 654.070312 507.519531 C 655.460938 506.542969 656.15625 505.707031 656.851562 505.570312 C 657.410156 505.570312 658.382812 506.542969 658.382812 507.101562 C 658.382812 507.65625 657.550781 508.910156 657.132812 508.910156 C 656.4375 508.910156 655.601562 508.214844 654.070312 507.519531 Z M 654.070312 507.519531 "/><path style=" stroke:none;fill-rule:nonzero;fill:#fd90c1;fill-opacity:1;" d="M 616.492188 544.679688 C 617.882812 543.84375 618.71875 543.148438 619.414062 543.148438 C 619.972656 543.148438 620.804688 544.261719 620.804688 544.816406 C 620.804688 545.375 619.832031 546.488281 619.277344 546.488281 C 618.71875 546.347656 618.023438 545.511719 616.492188 544.679688 Z M 616.492188 544.679688 "/><path style=" stroke:none;fill-rule:nonzero;fill:#fd90c1;fill-opacity:1;" d="M 769.585938 317.265625 C 770.421875 318.378906 771.394531 319.074219 771.394531 319.769531 C 771.394531 320.328125 770.558594 321.300781 769.863281 321.441406 C 768.75 321.71875 767.914062 320.882812 768.054688 319.769531 C 768.054688 319.074219 768.75 318.519531 769.585938 317.265625 Z M 769.585938 317.265625 "/><path style=" stroke:none;fill-rule:nonzero;fill:#fd90c1;fill-opacity:1;" d="M 694.152344 472.308594 C 693.457031 471.054688 692.621094 470.359375 692.621094 469.523438 C 692.621094 468.964844 693.59375 468.132812 694.292969 467.992188 C 695.40625 467.851562 696.238281 468.6875 695.960938 469.800781 C 695.820312 470.636719 694.988281 471.191406 694.152344 472.308594 Z M 694.152344 472.308594 "/><path style=" stroke:none;fill-rule:nonzero;fill:#fd90c1;fill-opacity:1;" d="M 541.617188 619.972656 C 543.007812 618.996094 543.703125 618.164062 544.398438 618.023438 C 544.957031 618.023438 545.929688 618.996094 545.929688 619.554688 C 545.929688 620.109375 545.09375 621.363281 544.679688 621.363281 C 543.84375 621.363281 543.148438 620.667969 541.617188 619.972656 Z M 541.617188 619.972656 "/><g clip-rule="nonzero" clip-path="url(#e593a16f88)"><path style=" stroke:none;fill-rule:nonzero;fill:#fd90c1;fill-opacity:1;" d="M 131.882812 809.25 C 131.050781 807.996094 130.214844 807.300781 130.214844 806.605469 C 130.214844 806.050781 131.1875 805.214844 131.882812 805.074219 C 132.996094 804.9375 133.832031 805.632812 133.554688 806.882812 C 133.414062 807.578125 132.71875 808.136719 131.882812 809.25 Z M 131.882812 809.25 "/></g><path style=" stroke:none;fill-rule:nonzero;fill:#fd90c1;fill-opacity:1;" d="M 246.703125 769.445312 C 245.589844 770.140625 244.894531 770.976562 244.335938 770.835938 C 243.640625 770.558594 242.667969 769.722656 242.527344 769.027344 C 242.390625 767.914062 243.363281 767.21875 244.476562 767.636719 C 245.3125 767.914062 245.730469 768.609375 246.703125 769.445312 Z M 246.703125 769.445312 "/><path style=" stroke:none;fill-rule:nonzero;fill:#fd90c1;fill-opacity:1;" d="M 318.9375 766.800781 C 319.910156 767.777344 320.746094 768.332031 320.882812 768.890625 C 321.300781 770.003906 320.605469 770.976562 319.351562 770.835938 C 318.65625 770.835938 317.542969 770.003906 317.542969 769.585938 C 317.683594 768.890625 318.378906 768.195312 318.9375 766.800781 Z M 318.9375 766.800781 "/><path style=" stroke:none;fill-rule:nonzero;fill:#fd90c1;fill-opacity:1;" d="M 54.363281 806.464844 C 55.753906 805.910156 56.449219 805.214844 57.285156 805.214844 C 57.84375 805.214844 58.539062 806.328125 58.539062 806.882812 C 58.679688 808.136719 57.703125 808.691406 56.589844 808.277344 C 55.894531 808.136719 55.476562 807.441406 54.363281 806.464844 Z M 54.363281 806.464844 "/><path style=" stroke:none;fill-rule:nonzero;fill:#fd90c1;fill-opacity:1;" d="M 204.253906 806.464844 C 205.648438 805.910156 206.34375 805.214844 207.179688 805.214844 C 207.734375 805.214844 208.429688 806.328125 208.429688 806.882812 C 208.570312 808.136719 207.59375 808.691406 206.480469 808.277344 C 205.925781 808.136719 205.367188 807.441406 204.253906 806.464844 Z M 204.253906 806.464844 "/><path style=" stroke:none;fill-rule:nonzero;fill:#fd90c1;fill-opacity:1;" d="M 356.652344 734.09375 C 355.957031 733.121094 354.980469 732.285156 355.121094 731.867188 C 355.398438 731.171875 356.234375 730.335938 356.929688 730.199219 C 358.042969 730.058594 358.738281 731.035156 358.460938 732.148438 C 358.320312 732.84375 357.488281 733.261719 356.652344 734.09375 Z M 356.652344 734.09375 "/><path style=" stroke:none;fill-rule:nonzero;fill:#fd90c1;fill-opacity:1;" d="M 466.460938 694.570312 C 467.851562 693.59375 468.550781 692.761719 469.246094 692.761719 C 469.800781 692.761719 470.777344 693.59375 470.777344 694.152344 C 470.777344 694.707031 470.078125 695.820312 469.523438 695.820312 C 468.964844 695.960938 468.132812 695.265625 466.460938 694.570312 Z M 466.460938 694.570312 "/></g><mask id="b80c31d1a2"><g filter="url(#edaf955996)"><rect x="0" width="810" y="0" height="809.999993" style="fill:#000000;fill-opacity:0.3;stroke:none;"/></g></mask></g></g></svg>